<svg width="1867" height="633" viewBox="0 0 1867 633" fill="none" xmlns="http://www.w3.org/2000/svg">
<path fill-rule="evenodd" clip-rule="evenodd" d="M1472.25 0.0844241H1652.75L1652.75 0.0820312L1652.76 0.0844241H1652.76V0.0906433L1674.17 28.3369H1820.04V28.7296L1860.51 89.4338L1860.35 89.4459H1860.78V269.217H1818.41V390.415H1826.08L1826.08 390.412L1826.08 390.415H1826.26V390.682L1866.86 451.524H1867V632.038H1784.65C1753.6 632.038 1726.47 626.186 1705.19 612.414L1705.07 612.338L1704.95 612.26C1690.73 602.779 1678.79 591.257 1669.25 577.749C1669.19 577.68 1669.14 577.608 1669.08 577.535C1645.96 547.994 1627.41 516.055 1621.76 506.027C1621.27 505.181 1620.8 504.328 1620.33 503.468C1620.1 503.05 1619.98 502.832 1619.98 502.832L1619.99 502.838C1619.86 502.592 1619.72 502.346 1619.59 502.098L1619.43 501.786L1619.27 501.467C1611.63 485.741 1606.25 468.76 1603.02 450.627H1567.85V486.763C1567.85 506.862 1563.82 526.037 1555.7 544.072C1548.25 561.225 1537.9 576.454 1524.71 589.641C1511.38 602.974 1495.76 613.356 1478.04 620.788C1460.15 628.29 1441.36 632.038 1421.83 632.038H1344.96V631.982L1304.26 570.929H1304.22V565.869C1302.15 568.136 1300.02 570.36 1297.84 572.541C1279.62 590.762 1258.18 605.284 1233.72 616.156L1233.62 616.2L1233.52 616.243C1209.05 626.809 1183 632.038 1155.56 632.038H925.595L925.593 632.04L925.592 632.038H925.529V631.942L895.404 586.756V632.038H452.433C425.004 632.038 398.045 629.709 371.57 625.037L371.502 625.025C345.006 620.255 319.965 612.28 296.449 601.056C272.697 589.72 251.118 574.874 231.758 556.59C228.226 553.254 224.808 549.78 221.504 546.169V632.038H40.9901V632.022L0.25 570.929V27.5934H180.763L180.764 27.5895L208.421 67.9019C214.579 57.5591 220.811 47.324 227.117 37.1964L233.096 27.5934H1316.6V28.3369H1472.25V0.0844241ZM895.404 570.929H897.389L897.39 570.931H895.404V570.929ZM483.971 570.929V584.22H483.961V570.929H483.971ZM160.395 88.7024V47.9629H20.6195V550.56H40.9901V88.7024H160.395ZM61.3689 550.56H61.3596V109.072H61.3689V550.56ZM483.971 550.56H483.961V109.072L483.971 109.072V550.56ZM905.158 269.217V550.56H925.529V269.217H905.158ZM945.898 550.56V248.847L945.907 248.847V550.56H945.898ZM1296.23 88.7024H863.523V47.9629H1296.23V88.7024ZM1357.34 407.461C1359.84 405.625 1361.81 403.263 1363.25 400.375C1365.73 396.41 1366.97 390.71 1366.97 383.275V269.217H1387.34V444.384C1387.34 447.022 1387.11 448.805 1386.87 449.908C1386.76 450.44 1386.65 450.74 1386.61 450.86L1386.2 451.509L1386.02 451.87C1384.88 452.107 1383.45 452.267 1381.68 452.267H1356.14C1356.94 445.022 1357.34 437.684 1357.34 430.258V407.461ZM1324.59 539.422V550.56H1344.96V498.832C1343.66 502.269 1342.26 505.68 1340.76 509.065C1336.14 519.751 1330.75 529.875 1324.59 539.422ZM1365.34 550.56H1365.33V472.637L1365.34 472.637V550.56ZM1623.74 450.627C1626.72 465.701 1631.34 479.682 1637.6 492.568C1638.98 495.176 1640.45 497.713 1642 500.178C1641.92 499.466 1641.83 498.753 1641.75 498.037L1641.72 497.784L1641.69 497.529C1640.27 481.897 1639.35 466.263 1638.92 450.627H1623.74ZM1668.89 529.473C1665.67 518.826 1663.36 507.563 1661.98 495.685C1660 473.876 1659 452.067 1659 430.258L1659.01 430.258C1659.01 452.067 1660.01 473.876 1661.99 495.685C1663.37 507.567 1665.68 518.832 1668.91 529.482L1668.89 529.473ZM1799.68 89.4459H1693.5V61.1934H1512.99V89.4459H1357.34V88.7024H1324.59V48.7064H1492.62V20.4539H1632.39V48.7064H1799.68V89.4459ZM1407.71 248.847L1407.72 248.847V444.384C1407.72 451.819 1406.48 457.519 1404 461.484C1402.02 465.45 1399.04 468.423 1395.08 470.406C1393.68 470.931 1392.21 471.364 1390.69 471.703C1392.21 471.363 1393.67 470.93 1395.07 470.406C1399.03 468.424 1402.01 465.45 1403.99 461.484C1406.47 457.519 1407.71 451.819 1407.71 444.384V248.847ZM1365.33 187.738V109.815L1365.34 109.815V187.738H1365.33ZM1110.22 550.56H1110.21V471.893L1110.22 471.893V550.56ZM1106.04 412.45V451.524H1110.21C1120.16 451.524 1130.32 452.038 1140.67 453.056C1149.34 453.432 1156.66 452.765 1162.79 451.322L1162.91 451.293L1163.04 451.265C1168.45 450.064 1171.74 447.961 1174 445.49C1174.36 445.104 1176.83 441.685 1176.83 430.258V269.217H1156.46V369.149C1156.46 382.532 1153.73 392.197 1148.28 398.145C1142.83 404.093 1135.64 408.058 1126.72 410.041C1119.54 412.128 1110.47 412.439 1106.04 412.45ZM1106.04 392.04V269.217H1136.09V369.149C1136.09 380.576 1133.62 383.995 1133.26 384.381C1131 386.852 1127.71 388.955 1122.3 390.156L1122.17 390.184L1122.05 390.213C1117.42 391.304 1112.1 391.951 1106.04 392.04ZM1197.2 248.847V430.258C1197.2 443.641 1194.47 453.306 1189.02 459.254C1183.57 465.202 1176.38 469.167 1167.46 471.15C1165.36 471.644 1163.19 472.062 1160.97 472.402C1163.2 472.062 1165.36 471.645 1167.47 471.15C1176.39 469.167 1183.57 465.202 1189.03 459.254C1194.48 453.306 1197.21 443.641 1197.21 430.258V248.847L1197.2 248.847ZM904.263 187.738V109.072L904.272 109.072V187.738H904.263ZM834.294 88.7024H443.221V47.9629H834.294V88.7024ZM443.221 158.435C450.557 147.642 457.347 137.735 463.592 128.714V451.524H452.433C449.389 451.524 446.318 451.479 443.221 451.391V158.435ZM341.272 380.903C341.83 364.045 345.895 344.762 354.05 322.872C363.124 298.516 374.131 274.089 387.093 249.592C398.678 228.497 410.598 208.309 422.852 189.024V390.415H411.693C397.741 390.415 383.236 389.485 368.167 387.604C358.497 386.353 349.552 384.103 341.272 380.903ZM342.984 403.015C350.197 405.197 357.735 406.796 365.597 407.81C381.458 409.793 396.823 410.784 411.693 410.784V449.05C410.766 448.941 409.838 448.829 408.907 448.713C395.709 447.006 383.863 443.437 373.214 438.134C363.634 433.128 355.684 426.523 349.182 418.23C346.571 414.358 344.398 409.385 342.984 403.015ZM254.263 120.495C243.104 139.006 232.185 157.866 221.504 177.075V102.703L254.263 120.495ZM272.181 130.227C260.376 149.788 248.837 169.75 237.566 190.112C231.802 200.87 226.449 211.777 221.504 222.833C213.696 240.293 206.91 258.124 201.144 276.327V276.356C210.562 246.617 222.705 217.869 237.575 190.112C248.846 169.751 260.384 149.791 272.188 130.23L272.181 130.227ZM263.258 47.9629H411.693C407.295 54.2732 402.601 61.063 397.613 68.3324C393.21 74.7488 388.577 81.5388 383.715 88.7024H338.268L263.258 47.9629ZM644.106 410.784V451.524H714.89V269.217H694.519V410.784H644.106ZM644.106 390.415H674.15V269.217H644.106V390.415ZM735.259 248.847V471.893L735.269 471.893V248.847L735.259 248.847ZM1533.36 81.5629L1533.37 81.5628V109.815L1533.36 109.815V81.5629ZM1659 248.847V291.226L1659.01 291.226V248.847H1547.49L1659 248.847ZM1567.85 269.217V270.857H1638.64V269.217H1567.85Z" fill="white"/>
<path fill-rule="evenodd" clip-rule="evenodd" d="M1492.63 48.7066V20.4541H1632.4V48.7066H1799.69V187.738H1757.31V383.275C1757.31 390.71 1758.3 396.41 1760.28 400.375C1762.76 404.341 1765.98 407.315 1769.95 409.297C1773.91 410.784 1778.37 411.528 1783.33 411.528H1799.69V550.56H1743.92C1715.18 550.56 1692.38 545.107 1675.52 534.203C1659.17 523.299 1646.53 509.42 1637.61 492.568C1629.18 475.22 1623.73 455.889 1621.25 434.576C1619.27 412.767 1618.27 390.958 1618.27 369.149H1506.75V425.654C1506.75 443.002 1503.28 459.359 1496.34 474.724C1489.9 489.594 1480.98 502.729 1469.58 514.129C1458.18 525.529 1444.8 534.451 1429.43 540.894C1414.06 547.338 1397.96 550.56 1381.1 550.56H1324.6V411.528H1340.95C1345.91 411.528 1350.37 410.784 1354.34 409.297C1358.3 407.315 1361.28 404.341 1363.26 400.375C1365.74 396.41 1366.98 390.71 1366.98 383.275V187.738H1324.6V48.7066H1492.63ZM1618.27 230.117V187.738H1506.75V224.434C1506.73 224.486 1506.72 224.544 1506.72 224.604V248.105C1506.72 248.351 1506.92 248.55 1507.16 248.55H1617.76C1618.01 248.55 1618.21 248.351 1618.21 248.105V230.117H1618.27Z" fill="black"/>
<path d="M411.703 47.9631C400.303 64.3198 386.92 83.8983 371.555 106.699C356.685 129.499 342.311 153.538 328.433 178.817C315.05 204.095 303.65 229.374 294.232 254.652C284.815 279.931 280.106 302.979 280.106 323.796C280.106 342.631 284.071 357.749 292.002 369.149C300.428 380.054 310.837 388.728 323.228 395.171C336.115 401.615 350.241 405.828 365.607 407.81C381.468 409.793 396.833 410.784 411.703 410.784V550.56C385.433 550.56 359.659 548.329 334.38 543.868C309.598 539.407 286.302 531.973 264.493 521.564C242.684 511.155 222.858 497.524 205.014 480.672C187.17 463.82 172.301 442.754 160.405 417.476V550.56H20.6296V47.9631H160.377C160.377 97.9971 160.235 131.022 160.095 163.819V163.821C159.957 196.19 159.82 228.337 159.82 276.395C159.82 276.447 159.861 276.168 159.947 275.579C161.674 263.826 181.516 128.799 254.745 47.9631H411.703Z" fill="black"/>
<path fill-rule="evenodd" clip-rule="evenodd" d="M834.305 550.56H443.231V47.9631H834.305V550.56ZM694.529 410.784V187.738H583.007V410.784H694.529Z" fill="black"/>
<path fill-rule="evenodd" clip-rule="evenodd" d="M1281.37 439.78C1291.28 417.476 1296.24 393.932 1296.24 369.149V47.9631H863.533V187.738H905.168V550.56H1033.67V550.561H1079.5V550.56H1114.83C1139.61 550.56 1162.91 545.851 1184.72 536.433C1207.02 526.52 1226.35 513.385 1242.71 497.029C1259.07 480.672 1271.95 461.589 1281.37 439.78ZM1072.55 412.45H1106.29V412.408C1113.65 412.304 1120.46 411.515 1126.73 410.041C1135.65 408.058 1142.84 404.093 1148.29 398.145C1153.74 392.197 1156.47 382.532 1156.47 369.149V187.738H1044.94V412.444H1072.55L1072.55 412.45Z" fill="black"/>
</svg>
