<svg width="1867" height="633" viewBox="0 0 1867 633" fill="none" xmlns="http://www.w3.org/2000/svg">
<path fill-rule="evenodd" clip-rule="evenodd" d="M1472.25 0.96333H1652.75L1652.75 0.960938L1652.76 0.96333H1652.76V0.96955L1674.16 29.2158H1820.04V29.6085L1860.51 90.3127L1860.35 90.3248H1860.78V270.096H1818.41V391.294H1826.08L1826.08 391.291L1826.08 391.294H1826.26V391.56L1866.86 452.403H1867V632.917H1784.65C1753.59 632.917 1726.47 627.065 1705.19 613.292L1705.07 613.217L1704.95 613.139C1690.73 603.658 1678.79 592.136 1669.25 578.628C1669.19 578.558 1669.14 578.487 1669.08 578.414C1645.96 548.873 1627.41 516.934 1621.76 506.906C1621.27 506.06 1620.8 505.207 1620.33 504.347C1620.1 503.929 1619.98 503.711 1619.98 503.711L1619.99 503.717C1619.86 503.471 1619.72 503.224 1619.59 502.977L1619.43 502.664L1619.27 502.346C1611.63 486.62 1606.25 469.639 1603.02 451.506H1567.85V487.642C1567.85 507.741 1563.82 526.916 1555.7 544.951C1548.25 562.104 1537.9 577.333 1524.71 590.52C1511.38 603.853 1495.76 614.235 1478.04 621.667C1460.15 629.169 1441.36 632.917 1421.83 632.917H1344.96V632.861L1304.26 571.808H1304.22V566.748C1302.15 569.015 1300.02 571.239 1297.84 573.42C1279.62 591.64 1258.18 606.163 1233.72 617.035L1233.62 617.079L1233.52 617.122C1209.05 627.688 1183 632.917 1155.56 632.917H925.595L925.593 632.919L925.592 632.917H925.529V632.821L895.404 587.635V632.917H452.433C425.004 632.917 398.045 630.588 371.57 625.916L371.502 625.904C345.006 621.134 319.965 613.158 296.449 601.935C272.697 590.598 251.118 575.753 231.758 557.469C228.226 554.133 224.808 550.659 221.504 547.048V632.917H40.9901V632.901L0.25 571.808V28.4723H180.763L180.764 28.4684L208.421 68.7808C214.579 58.438 220.811 48.2029 227.117 38.0753L233.096 28.4723H1316.6V29.2158H1472.25V0.96333ZM895.404 571.808H897.389L897.39 571.81H895.404V571.808ZM483.971 571.808V585.099H483.961V571.808H483.971ZM160.395 89.5813V48.8418H20.6195V551.438H40.9901V89.5813H160.395ZM61.3689 551.438H61.3596V109.951H61.3689V551.438ZM483.971 551.438H483.961V109.951L483.971 109.951V551.438ZM905.158 270.096V551.438H925.529V270.096H905.158ZM945.898 551.438V249.726L945.907 249.726V551.438H945.898ZM1296.23 89.5813H863.523V48.8418H1296.23V89.5813ZM1357.34 408.34C1359.84 406.504 1361.81 404.142 1363.25 401.254C1365.73 397.289 1366.97 391.589 1366.97 384.154V270.096H1387.34V445.263C1387.34 447.901 1387.11 449.684 1386.87 450.787C1386.76 451.319 1386.65 451.619 1386.61 451.739L1386.2 452.388L1386.02 452.749C1384.88 452.986 1383.45 453.146 1381.68 453.146H1356.14C1356.94 445.901 1357.34 438.563 1357.34 431.137V408.34ZM1324.59 540.301V551.438H1344.96V499.711C1343.66 503.148 1342.26 506.559 1340.76 509.944C1336.14 520.63 1330.75 530.754 1324.59 540.301ZM1365.34 551.438H1365.33V473.516L1365.34 473.515V551.438ZM1623.74 451.506C1626.72 466.58 1631.34 480.56 1637.6 493.447C1638.98 496.055 1640.45 498.591 1642 501.057C1641.92 500.345 1641.83 499.632 1641.75 498.916L1641.72 498.662L1641.69 498.408C1640.27 482.776 1639.35 467.142 1638.92 451.506H1623.74ZM1668.89 530.352C1665.66 519.705 1663.36 508.442 1661.98 496.564C1660 474.755 1659 452.946 1659 431.137L1659.01 431.137C1659.01 452.946 1660.01 474.755 1661.99 496.564C1663.37 508.446 1665.68 519.711 1668.91 530.361L1668.89 530.352ZM1799.67 90.3248H1693.5V62.0723H1512.99V90.3248H1357.34V89.5813H1324.59V49.5853H1492.62V21.3328H1632.39V49.5853H1799.67V90.3248ZM1407.71 249.726L1407.72 249.726V445.263C1407.72 452.698 1406.48 458.398 1404 462.363C1402.02 466.328 1399.04 469.302 1395.08 471.285C1393.68 471.81 1392.21 472.242 1390.69 472.582C1392.21 472.242 1393.67 471.809 1395.07 471.285C1399.03 469.302 1402.01 466.329 1403.99 462.363C1406.47 458.398 1407.71 452.698 1407.71 445.263V249.726ZM1365.33 188.617V110.694L1365.34 110.694V188.617H1365.33ZM1110.22 551.438H1110.21V472.772L1110.22 472.772V551.438ZM1106.04 413.329V452.403H1110.21C1120.16 452.403 1130.32 452.917 1140.67 453.935C1149.34 454.311 1156.66 453.644 1162.79 452.201L1162.91 452.172L1163.04 452.144C1168.45 450.943 1171.74 448.84 1174 446.369C1174.36 445.983 1176.83 442.564 1176.83 431.137V270.096H1156.46V370.028C1156.46 383.411 1153.73 393.076 1148.28 399.024C1142.83 404.972 1135.64 408.937 1126.72 410.92C1119.54 413.007 1110.47 413.318 1106.04 413.329ZM1106.04 392.919V270.096H1136.09V370.028C1136.09 381.455 1133.62 384.874 1133.26 385.26C1131 387.731 1127.7 389.834 1122.3 391.035L1122.17 391.063L1122.05 391.092C1117.42 392.182 1112.1 392.83 1106.04 392.919ZM1197.2 249.726V431.137C1197.2 444.52 1194.47 454.185 1189.02 460.133C1183.57 466.081 1176.38 470.046 1167.46 472.029C1165.36 472.523 1163.19 472.941 1160.97 473.281C1163.2 472.941 1165.36 472.523 1167.47 472.029C1176.39 470.046 1183.57 466.081 1189.03 460.133C1194.48 454.185 1197.21 444.52 1197.21 431.137V249.726L1197.2 249.726ZM904.263 188.617V109.951L904.272 109.951V188.617H904.263ZM834.294 89.5813H443.221V48.8418H834.294V89.5813ZM443.221 159.314C450.557 148.521 457.347 138.614 463.592 129.592V452.403H452.433C449.389 452.403 446.318 452.358 443.221 452.27V159.314ZM341.272 381.782C341.83 364.923 345.895 345.641 354.05 323.751C363.124 299.395 374.131 274.968 387.093 250.471C398.678 229.376 410.598 209.188 422.852 189.903V391.294H411.693C397.741 391.294 383.236 390.364 368.167 388.482C358.496 387.232 349.552 384.982 341.272 381.782ZM342.984 403.894C350.197 406.076 357.735 407.675 365.597 408.689C381.458 410.672 396.823 411.663 411.693 411.663V449.929C410.766 449.82 409.838 449.708 408.907 449.591C395.709 447.885 383.863 444.316 373.214 439.013C363.634 434.007 355.684 427.402 349.182 419.109C346.571 415.237 344.398 410.264 342.984 403.894ZM254.263 121.374C243.104 139.885 232.185 158.745 221.504 177.954V103.582L254.263 121.374ZM272.181 131.105C260.376 150.667 248.837 170.629 237.566 190.991C231.802 201.749 226.448 212.656 221.504 223.712C213.696 241.172 206.91 259.003 201.144 277.206V277.235C210.562 247.496 222.705 218.748 237.575 190.991C248.846 170.63 260.384 150.67 272.188 131.109L272.181 131.105ZM263.258 48.8418H411.693C407.295 55.1521 402.601 61.9419 397.613 69.2113C393.21 75.6277 388.577 82.4177 383.715 89.5813H338.268L263.258 48.8418ZM644.106 411.663V452.403H714.89V270.096H694.519V411.663H644.106ZM644.106 391.294H674.15V270.096H644.106V391.294ZM735.259 249.726V472.772L735.269 472.772V249.726L735.259 249.726ZM1533.36 82.4418L1533.36 82.4417V110.694L1533.36 110.694V82.4418ZM1659 249.726V292.105L1659.01 292.105V249.726H1547.49L1659 249.726ZM1567.85 270.096V271.735H1638.64V270.096H1567.85Z" fill="black"/>
<path fill-rule="evenodd" clip-rule="evenodd" d="M1492.63 49.5855V21.333H1632.4V49.5855H1799.69V188.617H1757.31V384.154C1757.31 391.589 1758.3 397.289 1760.28 401.254C1762.76 405.22 1765.98 408.194 1769.95 410.176C1773.91 411.663 1778.37 412.407 1783.33 412.407H1799.69V551.439H1743.92C1715.18 551.439 1692.38 545.986 1675.52 535.082C1659.17 524.177 1646.53 510.299 1637.61 493.447C1629.18 476.099 1623.73 456.768 1621.25 435.455C1619.27 413.646 1618.27 391.837 1618.27 370.028H1506.75V426.533C1506.75 443.881 1503.28 460.238 1496.34 475.603C1489.9 490.473 1480.98 503.608 1469.58 515.008C1458.18 526.408 1444.79 535.33 1429.43 541.773C1414.06 548.217 1397.96 551.439 1381.1 551.439H1324.6V412.407H1340.95C1345.91 412.407 1350.37 411.663 1354.34 410.176C1358.3 408.194 1361.28 405.22 1363.26 401.254C1365.74 397.289 1366.98 391.589 1366.98 384.154V188.617H1324.6V49.5855H1492.63ZM1618.27 230.996V188.617H1506.75V225.313C1506.73 225.365 1506.72 225.423 1506.72 225.483V248.984C1506.72 249.23 1506.92 249.429 1507.16 249.429H1617.76C1618.01 249.429 1618.21 249.23 1618.21 248.984V230.996H1618.27Z" fill="white"/>
<path d="M411.703 48.842C400.303 65.1987 386.92 84.7772 371.555 107.577C356.685 130.378 342.311 154.417 328.433 179.696C315.05 204.974 303.65 230.253 294.232 255.531C284.815 280.81 280.106 303.858 280.106 324.675C280.106 343.51 284.071 358.628 292.002 370.028C300.428 380.932 310.837 389.606 323.228 396.05C336.115 402.494 350.241 406.707 365.607 408.689C381.468 410.672 396.833 411.663 411.703 411.663V551.439C385.433 551.439 359.659 549.208 334.38 544.747C309.598 540.286 286.302 532.852 264.493 522.443C242.684 512.034 222.858 498.403 205.014 481.551C187.17 464.699 172.301 443.633 160.405 418.355V551.439H20.6296V48.842H160.377C160.377 98.876 160.235 131.901 160.095 164.698V164.699C159.957 197.069 159.82 229.216 159.82 277.274C159.82 277.326 159.861 277.047 159.947 276.458C161.674 264.705 181.516 129.677 254.745 48.842H411.703Z" fill="white"/>
<path fill-rule="evenodd" clip-rule="evenodd" d="M834.305 551.439H443.231V48.842H834.305V551.439ZM694.529 411.663V188.617H583.007V411.663H694.529Z" fill="white"/>
<path fill-rule="evenodd" clip-rule="evenodd" d="M1281.37 440.659C1291.28 418.355 1296.24 394.811 1296.24 370.028V48.842H863.533V188.617H905.168V551.439H1033.67V551.44H1079.5V551.439H1114.83C1139.61 551.439 1162.91 546.73 1184.72 537.312C1207.02 527.399 1226.35 514.264 1242.71 497.908C1259.07 481.551 1271.95 462.468 1281.37 440.659ZM1072.55 413.329H1106.29V413.287C1113.65 413.183 1120.46 412.394 1126.73 410.92C1135.65 408.937 1142.84 404.972 1148.29 399.024C1153.74 393.076 1156.47 383.411 1156.47 370.028V188.617H1044.94V413.323H1072.55L1072.55 413.329Z" fill="white"/>
</svg>
