<svg width="362" height="125" viewBox="0 0 362 125" fill="none" xmlns="http://www.w3.org/2000/svg">
<path fill-rule="evenodd" clip-rule="evenodd" d="M201.438 106.286C201.438 107.554 202.606 108.504 203.832 108.18C223.783 102.906 238.5 84.6125 238.5 62.855C238.5 36.9777 217.681 16 192 16C166.319 16 145.5 36.9777 145.5 62.855C145.5 85.1127 160.902 103.746 181.552 108.523C182.765 108.803 183.891 107.859 183.891 106.614V95.514C183.891 94.6173 183.292 93.8357 182.439 93.5588C175.899 91.4355 170.609 87.6757 166.57 82.2794C162.266 76.4893 160.114 69.7801 160.114 62.1519C160.114 52.0728 163.873 43.8165 171.389 37.383C177.632 32.0524 184.739 29.3871 192.71 29.3871C202.984 29.3871 211.273 33.14 217.577 40.6457C222.669 46.7116 225.214 53.7118 225.214 61.6464C225.214 69.4278 222.957 76.3974 218.441 82.5552C214.653 87.755 209.469 91.4228 202.887 93.5585C202.036 93.8348 201.438 94.6159 201.438 95.5113V106.286ZM200.847 69.2067C200.847 68.1022 199.952 67.2067 198.847 67.2067H186.527C185.422 67.2067 184.527 68.1022 184.527 69.2067V69.9655C184.527 71.6616 182.604 72.501 181.644 71.1028C179.929 68.6049 179.072 65.6519 179.072 62.2438C179.072 58.3531 180.42 54.9832 183.118 52.134C185.815 49.2849 189.012 47.8604 192.71 47.8604C196.377 47.8604 199.559 49.2849 202.257 52.134C204.954 54.9832 206.303 58.3531 206.303 62.2438C206.303 65.5482 205.455 68.46 203.76 70.9792C202.803 72.4016 200.847 71.5689 200.847 69.8545V69.2067Z" fill="#00BFFF"/>
<path d="M15.75 45.1609C15.75 44.0563 16.6454 43.1609 17.75 43.1609H33.9827C35.0873 43.1609 35.9827 44.0563 35.9827 45.1609V72.0874C35.9827 73.3475 36.2604 74.3427 36.8157 75.0732C37.371 75.7854 38.0516 76.1415 38.8577 76.1415C39.6817 76.1415 40.5057 75.758 41.3297 74.991C42.1716 74.2058 42.5926 73.2379 42.5926 72.0874V45.1609C42.5926 44.0563 43.488 43.1609 44.5926 43.1609H61.0671C62.1717 43.1609 63.0671 44.0563 63.0671 45.1609V72.8818C63.0671 77.4655 61.9117 81.4374 59.601 84.7976C57.3081 88.1577 54.2987 90.6961 50.5728 92.4127C46.8648 94.1293 42.9598 94.9876 38.8577 94.9876C35.9379 94.9876 33.0898 94.5219 30.3132 93.5906C27.5367 92.641 25.0468 91.2348 22.8435 89.3721C20.6582 87.4912 18.9296 85.1628 17.6577 82.387C16.3859 79.6112 15.75 76.4428 15.75 72.8818V45.1609Z" fill="#040B1D"/>
<path d="M69.8337 92.087C68.7292 92.087 67.8338 91.1916 67.8338 90.087V60.0925C67.8338 56.0567 68.9354 52.6052 71.1387 49.7381C73.3599 46.8528 76.2887 44.6796 79.925 43.2187C83.5613 41.7577 87.4126 41.0273 91.4789 41.0273C95.6347 41.0273 99.5845 41.7943 103.328 43.3283C107.09 44.844 110.126 47.1176 112.437 50.149C114.766 53.1805 115.93 56.7597 115.93 60.8869V90.087C115.93 91.1916 115.035 92.087 113.93 92.087H96.6763C95.5718 92.087 94.6763 91.1916 94.6763 90.087V62.2291C94.6763 61.1334 94.3718 60.3208 93.7628 59.7912C93.1717 59.2433 92.491 58.9694 91.7207 58.9694C90.8609 58.9694 90.0369 59.2981 89.2487 59.9555C88.4605 60.5947 88.0665 61.3526 88.0665 62.2291V90.087C88.0665 91.1916 87.171 92.087 86.0665 92.087H69.8337Z" fill="#040B1D"/>
<path d="M122.67 92.087C121.565 92.087 120.67 91.1916 120.67 90.087V43.6025C120.67 42.498 121.565 41.6025 122.67 41.6025H139.709C140.813 41.6025 141.709 42.498 141.709 43.6025V90.087C141.709 91.1916 140.813 92.087 139.709 92.087H122.67Z" fill="#040B1D"/>
<path d="M242.177 45.1609C242.177 44.0563 243.073 43.1609 244.177 43.1609H260.41C261.514 43.1609 262.41 44.0563 262.41 45.1609V72.0874C262.41 73.3475 262.687 74.3427 263.243 75.0732C263.798 75.7854 264.479 76.1415 265.285 76.1415C266.109 76.1415 266.933 75.758 267.757 74.991C268.599 74.2058 269.02 73.2379 269.02 72.0874V45.1609C269.02 44.0563 269.915 43.1609 271.02 43.1609H287.494C288.599 43.1609 289.494 44.0563 289.494 45.1609V72.8818C289.494 77.4655 288.339 81.4374 286.028 84.7976C283.735 88.1577 280.726 90.6961 277 92.4127C273.292 94.1293 269.387 94.9876 265.285 94.9876C262.365 94.9876 259.517 94.5219 256.74 93.5906C253.964 92.641 251.474 91.2348 249.271 89.3721C247.085 87.4912 245.357 85.1628 244.085 82.387C242.813 79.6112 242.177 76.4428 242.177 72.8818V45.1609Z" fill="#040B1D"/>
<path d="M344.875 58.4679C345.273 59.3853 344.888 60.447 344.015 60.9331L322.201 73.0694C321.243 73.6025 320.034 73.2647 319.491 72.3122L316.282 66.6827C315.728 65.7116 316.078 64.4752 317.058 63.9381L323.199 60.5744C324.362 59.9375 324.545 58.3442 323.279 57.952C322.67 57.7634 322.011 57.6692 321.312 57.6692C319.095 57.6692 316.879 58.6821 314.663 60.63C314.204 61.0196 312.14 62.5779 311.529 64.2142C311.147 65.1492 311.223 66.0063 311.3 66.5517C311.376 67.2529 313.44 72.9408 315.198 74.9667C317.032 77.0704 319.095 78.0833 321.541 78.0833C325.093 78.0833 328.949 76.0924 332.947 72.1106C333.751 71.3096 335.056 71.2634 335.868 72.0569L344.356 80.3547C345.043 81.026 345.163 82.0963 344.575 82.8561C342.95 84.9588 340.924 86.8481 338.585 88.5242C335.68 90.55 332.623 92.0304 329.337 93.1213C326.05 94.1342 322.764 94.6796 319.478 94.6796C316.191 94.6796 313.134 94.1342 310.153 93.1213C307.173 92.1083 304.498 90.55 302.052 88.3684C299.606 86.2646 297.695 83.5375 296.167 80.265C294.715 76.9925 293.645 73.2525 293.415 68.9671C293.415 68.7333 293.415 68.6554 293.415 68.2658C293.415 67.8763 293.415 67.6425 293.415 67.6425C293.415 61.9546 294.715 57.0458 297.237 52.9942C299.759 48.9425 303.045 45.8258 306.943 43.8C310.918 41.7742 314.892 40.6833 318.943 40.6833C331.09 40.6833 339.734 46.6115 344.875 58.4679Z" fill="#040B1D"/>
</svg>
