<?xml version="1.0" encoding="iso-8859-1"?>
<!-- Generator: Adobe Illustrator 26.2.1, SVG Export Plug-In . SVG Version: 6.00 Build 0)  -->
<svg version="1.1" id="Layer_2" xmlns="http://www.w3.org/2000/svg" xmlns:xlink="http://www.w3.org/1999/xlink" x="0px" y="0px"
	 viewBox="0 0 400 400" style="enable-background:new 0 0 400 400;" xml:space="preserve">
<g>
	<linearGradient id="SVGID_1_" gradientUnits="userSpaceOnUse" x1="128.279" y1="176.7476" x2="181.5733" y2="99.3618">
		<stop  offset="0.1511" style="stop-color:#146BB4"/>
		<stop  offset="0.3022" style="stop-color:#1366AD"/>
		<stop  offset="0.5183" style="stop-color:#10579A"/>
		<stop  offset="0.7722" style="stop-color:#0B3E7C"/>
		<stop  offset="1" style="stop-color:#06235A"/>
	</linearGradient>
	<path style="fill:url(#SVGID_1_);" d="M146.769,69.545c-22.455,25.928-37.81,67.658-40.242,115.512h72.251
		c2.413-34.09,13.627-57.597,21.711-67.549C181.974,88.902,157.74,75.003,146.769,69.545z"/>
</g>
<linearGradient id="SVGID_00000105428026385245635590000006529799543787565981_" gradientUnits="userSpaceOnUse" x1="264.3253" y1="100.4529" x2="180.0308" y2="145.2575">
	<stop  offset="0" style="stop-color:#7EC7EE"/>
	<stop  offset="1" style="stop-color:#405EAA"/>
</linearGradient>
<path style="fill:url(#SVGID_00000105428026385245635590000006529799543787565981_);" d="M222.2,185.058h72.251
	c-4.082-80.336-44.576-143.434-93.962-143.434c-19.968,0-38.479,10.323-53.72,27.921c10.933,5.438,35.191,19.335,53.72,47.963
	C218.673,145.601,221.617,172.856,222.2,185.058z"/>
<g style="opacity:0.6;">
	
		<linearGradient id="SVGID_00000118365993243997343150000002638673857372482225_" gradientUnits="userSpaceOnUse" x1="128.279" y1="337.6018" x2="181.5733" y2="260.216" gradientTransform="matrix(1 0 0 -1 0 560.8544)">
		<stop  offset="0.1511" style="stop-color:#146BB4"/>
		<stop  offset="0.3281" style="stop-color:#1365AD"/>
		<stop  offset="0.5811" style="stop-color:#10549A"/>
		<stop  offset="0.8787" style="stop-color:#0B377C"/>
		<stop  offset="1" style="stop-color:#092A6D"/>
	</linearGradient>
	<path style="fill:url(#SVGID_00000118365993243997343150000002638673857372482225_);" d="M146.769,330.455
		c-22.455-25.928-37.81-67.658-40.242-115.512h72.251c2.413,34.09,13.627,57.597,21.711,67.549
		C181.974,311.098,157.74,324.997,146.769,330.455z"/>
</g>
<linearGradient id="SVGID_00000117654935733354820900000012920231943970771627_" gradientUnits="userSpaceOnUse" x1="264.3253" y1="261.3072" x2="180.0308" y2="306.1118" gradientTransform="matrix(1 0 0 -1 0 560.8544)">
	<stop  offset="0" style="stop-color:#7EC7EE"/>
	<stop  offset="1" style="stop-color:#405EAA"/>
</linearGradient>
<path style="opacity:0.6;fill:url(#SVGID_00000117654935733354820900000012920231943970771627_);" d="M222.2,214.943h72.251
	c-4.082,80.336-44.576,143.434-93.962,143.434c-19.968,0-38.479-10.323-53.72-27.921c10.933-5.438,35.191-19.335,53.72-47.963
	C218.673,254.399,221.617,227.144,222.2,214.943z"/>
</svg>
