<?xml version="1.0" encoding="UTF-8"?>
<svg width="607" height="597" version="1.1" viewBox="0 0 607 597" xmlns="http://www.w3.org/2000/svg">
 <g id="Amplitude-Icon-Black-wbg" transform="translate(-3304 -7602)">
  <g transform="translate(3338.6 7631.6)" data-name="Group 65">
   <path d="m0 269.04c0-148.59 120.45-269.04 269.03-269.04s269.04 120.45 269.04 269.04-120.45 269.03-269.04 269.03-269.03-120.45-269.03-269.03zm52.8 0c0 119.42 96.81 216.23 216.23 216.23s216.23-96.81 216.23-216.23-96.803-216.23-216.22-216.23-216.23 96.805-216.23 216.23zm221.16 118.17c-8.149-16.315-62.625-118.06-62.625-118.06h219.37s-58.08 103.88-64.813 118.06-17.629 39.746-44.179 39.75-39.602-23.43-47.752-39.75zm-143.32-56.564c-7.65-20.267-21.307-61.49-21.307-61.49s12.55-32.723 23.586-61.49c9.43-22.1 17.864-32.611 25.943-32.627 19.1-0.042 23.508 12.36 31.158 32.627s21.312 61.49 21.312 61.49-12.551 32.727-23.587 61.49c-9.434 22.108-17.868 32.611-25.943 32.632h-0.085c-19.025-2e-3 -23.435-12.392-31.077-32.632zm226.18-61.49h-145.49s58.08-103.88 64.813-118.06 17.629-39.745 44.179-39.745 39.6 23.429 47.747 39.745 62.625 118.06 62.625 118.06z" fill="#4ee59a" data-name="Union 1"/>
  </g>
 </g>
</svg>
