<?xml version="1.0" encoding="utf-8"?>
<!-- Generator: Adobe Illustrator 26.0.1, SVG Export Plug-In . SVG Version: 6.00 Build 0)  -->
<svg version="1.1" id="Layer_1" xmlns="http://www.w3.org/2000/svg" xmlns:xlink="http://www.w3.org/1999/xlink" x="0px" y="0px"
	 viewBox="0 0 19 19" style="enable-background:new 0 0 19 19;" xml:space="preserve">
<style type="text/css">
	.st0{display:none;}
	.st1{display:none;fill-rule:evenodd;clip-rule:evenodd;}
	.st2{clip-path:url(#SVGID_00000065068874259786113390000007816160090132778677_);}
	.st3{fill:url(#SVGID_00000116929926619642902010000006043706287132726435_);}
</style>
<path class="st0" d="M46.9,2.6c-0.7,0-1.3,0.6-1.3,1.3V6h4l-0.9,2.6h-3.1V19h-2.7V3.9c0-2.1,1.8-3.9,4-3.9H50l-0.9,2.6H46.9z"/>
<path class="st1" d="M21.4,0.9h6.7c3,0,5.4,2.3,5.4,5.2c0,1.4-0.6,2.8-1.6,3.7c1.2,0.9,2.1,2.4,2.1,4.1c0,2.9-2.4,5.2-5.4,5.2h-7.1
	V0.9z M24.1,3.5h4c1.5,0,2.7,1.2,2.7,2.6c0,1.4-1.2,2.6-2.7,2.6h-4V3.5z M24.1,11.2v5.2h4.5c1.5,0,2.7-1.2,2.7-2.6s-1.2-2.6-2.7-2.6
	H24.1z"/>
<path class="st0" d="M39.3,0.9h-2.7v2.6h2.7V0.9z"/>
<path class="st0" d="M39.3,6h-2.7v13h2.7V6z"/>
<path class="st0" d="M51.8,6v13h2.7V8.6h3.6L59,6H51.8z"/>
<path class="st1" d="M71.5,12.4c0,3.6-2.2,6.6-6,6.6s-6-2.9-6-6.6c0-3.6,2.2-6.6,6-6.6S71.5,8.8,71.5,12.4z M68.8,12.4
	c0,1.3-0.4,2.4-0.9,3c-0.5,0.6-1.2,1-2.4,1s-1.9-0.4-2.4-1c-0.5-0.6-0.9-1.7-0.9-3c0-1.3,0.4-2.4,0.9-3c0.5-0.6,1.2-1,2.4-1
	s1.9,0.4,2.4,1C68.4,10,68.8,11.1,68.8,12.4z"/>
<path class="st0" d="M81.3,10c0-0.2-0.1-0.4-0.2-0.5c-0.1-0.2-0.2-0.4-0.4-0.5c-0.3-0.3-0.7-0.6-1.2-0.7c-0.2-0.1-0.5-0.1-0.7-0.1
	c-0.3,0-0.5,0-0.8,0c-0.5,0-0.9,0.2-1.3,0.4c-0.1,0.1-0.2,0.2-0.3,0.4c-0.1,0.1-0.1,0.3-0.1,0.4c0,0,0,0,0,0v0.1c0,0,0,0.1,0,0.1
	c0,0.1,0,0.1,0,0.2c0.1,0.1,0.1,0.2,0.2,0.3c0.4,0.3,0.8,0.6,1.3,0.7c0.3,0.1,0.6,0.2,0.9,0.3l0.2,0.1l0.2,0.1
	c0.2,0,0.3,0.1,0.5,0.1c0.3,0.1,0.7,0.2,1.1,0.3c0.4,0.1,0.8,0.3,1.1,0.4c0.4,0.2,0.8,0.5,1.1,0.8c0.4,0.4,0.7,0.8,0.8,1.3
	c0.1,0.2,0.1,0.5,0.2,0.7c0,0.2,0,0.5,0,0.7c0,0.5-0.2,1-0.5,1.4c-0.2,0.4-0.6,0.8-1,1.1c-0.4,0.3-0.8,0.5-1.2,0.7
	C80.6,18.8,79.8,19,79,19c-0.8,0-1.6-0.1-2.4-0.3c-0.8-0.3-1.6-0.8-2.1-1.4c-0.3-0.3-0.5-0.7-0.7-1.1c-0.2-0.4-0.3-0.8-0.4-1.2
	l2.5-0.4c0,0.2,0.1,0.4,0.2,0.6c0.1,0.3,0.3,0.6,0.6,0.8c0.3,0.2,0.5,0.4,0.9,0.5c0.5,0.2,1,0.2,1.5,0.2c0.5,0,1-0.1,1.5-0.3
	c0.4-0.1,0.7-0.4,0.9-0.7c0.1-0.1,0.1-0.3,0.1-0.4c0-0.1,0-0.2,0-0.3c0-0.1,0-0.2,0-0.2c0-0.1-0.1-0.2-0.2-0.3
	c-0.1-0.1-0.3-0.3-0.5-0.3c-0.5-0.3-1.1-0.4-1.6-0.6l-0.5-0.1l-0.3-0.1l-0.3-0.1c-0.4-0.1-0.7-0.2-1.1-0.3c-0.4-0.1-0.7-0.3-1.1-0.4
	c-0.4-0.2-0.8-0.4-1.1-0.7c-0.4-0.3-0.7-0.8-0.9-1.3c-0.1-0.2-0.2-0.5-0.2-0.8c0-0.1,0-0.2,0-0.4V9.2c0-0.1,0-0.1,0-0.2
	c0.1-0.5,0.2-1,0.5-1.4c0.3-0.4,0.6-0.8,1.1-1c0.7-0.4,1.6-0.7,2.5-0.7c0.4,0,0.8,0,1.2,0c0.4,0,0.8,0.1,1.2,0.2
	c0.8,0.2,1.6,0.6,2.3,1.2c0.3,0.3,0.6,0.6,0.8,1c0.3,0.4,0.4,0.8,0.5,1.3L81.3,10z"/>
<path class="st0" d="M86.2,15.1V3.5h2.7V6H92v2.6h-3.1v6.5c0,0.7,0.6,1.3,1.3,1.3H92V19h-1.8C88,19,86.2,17.3,86.2,15.1z"/>
<g>
	<defs>
		<rect id="SVGID_1_" y="6" width="17.9" height="13"/>
	</defs>
	<clipPath id="SVGID_00000140695935624718018670000007099468203606275002_">
		<use xlink:href="#SVGID_1_"  style="overflow:visible;"/>
	</clipPath>
	<g style="clip-path:url(#SVGID_00000140695935624718018670000007099468203606275002_);">
		
			<linearGradient id="SVGID_00000083057283311608825830000002797613902966751379_" gradientUnits="userSpaceOnUse" x1="8.932" y1="13.9546" x2="8.932" y2="1" gradientTransform="matrix(1 0 0 -1 0 20)">
			<stop  offset="0" style="stop-color:#12D5D5"/>
			<stop  offset="0.2013" style="stop-color:#0BB0F8"/>
			<stop  offset="0.4032" style="stop-color:#4584F5"/>
			<stop  offset="0.6021" style="stop-color:#AC57C0"/>
			<stop  offset="0.8019" style="stop-color:#E65659"/>
			<stop  offset="1" style="stop-color:#FFBF12"/>
		</linearGradient>
		<path style="fill:url(#SVGID_00000083057283311608825830000002797613902966751379_);" d="M8.9,19H0L13.4,6h4.5L8.9,19z"/>
	</g>
</g>
</svg>
