<?xml version="1.0" encoding="utf-8"?>
<!-- Generator: Adobe Illustrator 26.0.1, SVG Export Plug-In . SVG Version: 6.00 Build 0)  -->
<svg version="1.1" id="图层_1" xmlns="http://www.w3.org/2000/svg" xmlns:xlink="http://www.w3.org/1999/xlink" x="0px" y="0px"
	 viewBox="0 0 708.4 877.5" style="enable-background:new 0 0 708.4 877.5;" xml:space="preserve">
<style type="text/css">
	.st0{fill:#FA8C16;}
	.st1{fill:#4A4A4A;}
	.st2{display:none;fill:#FFFFFF;}
</style>
<path class="st0" d="M45.7,228.2L361.5,45.9c10.9-6.3,24.3-6.3,35.2,0l198.9,114.8c20,11.5,23.6,38.9,7.3,55.3l-67.4,67.8
	c-11.2,11.3-28.7,13.6-42.5,5.6L397,234c-11.1-6.4-24.8-6.4-35.9,0l-333,194.2V258.7C28.1,246.1,34.8,234.5,45.7,228.2z"/>
<path class="st1" d="M596.3,716.3L396.6,831.5c-10.9,6.3-24.3,6.3-35.1,0L45.7,649.2c-10.9-6.3-17.6-17.9-17.6-30.4V465l162.7-94.3
	v154.1c0,12.6,6.7,24.2,17.6,30.4l153.1,88.4c10.9,6.3,24.3,6.3,35.1,0l96.9-55.9c13.8-8,31.2-5.7,42.4,5.6l67.6,67.6
	C619.9,677.3,616.3,704.7,596.3,716.3z"/>
<path class="st2" d="M1872.3,126v477.6c0,32.7-13.7,36.5-44.4,36.5h-242.1c-10.5,0-18.8-3.1-25.6-9.5c-3.7-3.4-9.8-2.8-9.8-32.7V126
	h-122.5v484.8c0,40.7,14,74.9,41.6,101.7c26.5,25.9,64.2,39,112.1,39h258.5c44,0,81-13.6,109.9-40.5c29.7-27.6,44.7-57.9,44.7-111.5
	V125.9L1872.3,126z"/>
<path class="st2" d="M2613.6,423.8c-24.1-25.9-56.1-39-95.3-39h-222c-13.7,0-22.8-2.8-32.7-12.3c-9.6-8.9-10.8-18.6-10.8-30.5v-64.1
	c0-12.3,2-22.4,10.1-30.7c4.6-4.6,11.7-10,37.9-10h344.5V125.8h-388.6c-45.7,0-82.6,19.3-109.6,57.2c-11.2,15.6-16.7,42.1-16.7,81.1
	v116.1c0,36.3,9.3,64,27.6,82.3c22.1,22.4,51.8,33.8,88.1,33.8h233.4c14.9,0,25.7,2.8,32.4,8.3c10.1,8.1,14.9,16.8,14.9,26.7v63.1
	c0,30.7-6,30.2-9.4,33.6c-8.7,8.3-20.2,12.3-35,12.3h-352.5v111.4h376.3c43.7,0,79.6-14.2,106.6-42.1
	c24.2-25.1,36.5-60.2,36.5-104.3v-73.1C2649.1,485.6,2637.2,449.2,2613.6,423.8z"/>
<polygon class="st2" points="2795.4,126 2795.4,237.4 2999.8,237.4 2999.8,751.4 3122.2,751.4 3122.2,237.4 3329.1,237.4 
	3329.1,126 "/>
<path class="st2" d="M1301.6,385.3c3.1-36.4,0-122.1,0-122.1c0-55.8-24.9-97.1-73.9-122.7c-19.2-10.2-48.3-15.1-88.9-15.1
	l-230.5,0.4c-36.5,0-144.8-0.4-144.8-0.4l55.3,111.4H943c1.1,0,2.2,0,3.4,0h175.2c26.8,0,57.5,4.8,57.5,42.4v91
	c0,29.3-14.7,42.4-47.7,42.4H969.6l0,0H763.5V752H886V523.9h186.1l84.8,228.1h145.8c0,0-86.1-230.5-88.7-236.1
	c-3.5-7.4,36.2-13.2,60.6-39.7C1299.1,449.8,1298.5,421.7,1301.6,385.3z"/>
</svg>
