<?xml version="1.0" encoding="utf-8"?>
<!-- Generator: Adobe Illustrator 26.0.1, SVG Export Plug-In . SVG Version: 6.00 Build 0)  -->
<svg version="1.1" id="Layer_1" xmlns="http://www.w3.org/2000/svg" xmlns:xlink="http://www.w3.org/1999/xlink" x="0px" y="0px"
	 viewBox="0 0 178.4 178.5" style="enable-background:new 0 0 178.4 178.5;" xml:space="preserve">
<style type="text/css">
	.st0{fill:#496DDB;}
	.st1{display:none;}
	.st2{fill:#2F2E42;}
</style>
<g>
	<path class="st0" d="M109.2,72c-1.1-4.2-3.7-6.9-8-8.1c-3.6-1-7.3-1.4-11-1.6c-4.2,0.1-8.5,0.4-12.6,1.6c-4.3,1.2-6.9,3.9-8,8.1
		c-0.6,2.3-0.8,4.7-0.9,7c-0.2,2.2-0.2,2.5,1.3,2.5h37.8c2.6,0,2.6,0,2.3-2.6C110,76.7,109.7,74.3,109.2,72z"/>
	<path class="st0" d="M108.5,96.9H70.8c-2.6,0-2.6,0-2.3,2.6c0.1,2.3,0.3,4.7,0.9,7c1.1,4.2,3.7,6.9,8,8.1c3.6,1,7.3,1.4,11,1.6
		c4.2-0.1,8.5-0.4,12.6-1.6c4.3-1.2,6.9-3.9,8-8.1c0.6-2.3,0.8-4.7,0.9-7C110.1,97.3,110.1,97,108.5,96.9z"/>
	<path class="st0" d="M89.2,0C40,0,0,40,0,89.2s40,89.2,89.2,89.2c49.3,0,89.2-40,89.2-89.2S138.5,0,89.2,0z M126.8,69.1
		c0.4,2.6,0.7,5.2,1,7.9v4.6h13.8c1.1,0,2.1,0,3.1,0.2c2.4,0.4,3.9,1.8,4,4.1v6.7c-0.1,2.3-1.6,3.7-4,4.1c-1,0.2-2,0.2-3.1,0.2h-14
		v4.5c-0.3,2.7-0.6,5.3-1,7.9s-1.1,4.9-2,6.9h17.7c2.1,0,4.1,0.2,5.5,2.2c2.1,3.3,1,7.7-2.3,9.8c-0.4,0.3-0.9,0.6-1.4,0.7
		c-3.7,1.2-7.5,1.4-11.4,1.6c-15.9,0.3-32.2,0.4-43.2,0.4c-13,0-30.4-0.2-43.6-0.5c-3.9-0.1-7.7-0.3-11.3-1.6
		c-0.6-0.1-1-0.3-1.4-0.7c-3.3-2.1-4.4-6.4-2.3-9.8c1.3-2,3.3-2.2,5.4-2.2h17.5c-0.8-2-1.5-4.3-1.9-6.8c-0.4-2.6-0.7-5.2-1-7.9v-4.6
		h-14c-1.1,0-2.1,0-3.1-0.2c-2.4-0.4-3.9-1.8-4-4.1v-6.7c0.1-2.3,1.6-3.7,4-4.1c1-0.2,2-0.2,3.1-0.2h14V77c0.3-2.7,0.6-5.3,1-7.9
		s1.1-4.9,2-6.9H36.2c-2.1,0-4.1-0.2-5.5-2.2c-2.1-3.3-1-7.7,2.3-9.8c0.4-0.3,0.9-0.6,1.4-0.7c3.7-1.2,7.5-1.4,11.3-1.6
		c15.9-0.3,32.2-0.4,43.2-0.4c13,0,30.5,0.2,43.6,0.5c3.9,0.1,7.7,0.3,11.3,1.6c0.6,0.1,1,0.3,1.4,0.7c3.3,2.1,4.4,6.4,2.3,9.8
		c-1.3,2-3.3,2.2-5.4,2.2h-17.5C125.7,64.3,126.3,66.5,126.8,69.1z"/>
</g>
<g class="st1">
	<path class="st2" d="M289.3,131.3c-1.8,0-3.8-0.2-6-0.5s-4.3-1-6.3-2.1c-2-1.1-3.7-2.8-4.9-5c-1.3-2.2-1.9-5.2-1.9-9.1V69.2
		c0-3.3,0.5-6.1,1.6-8.4c1-2.2,2.4-4,4.2-5.3c1.8-1.3,3.7-2.2,5.8-2.7c2.1-0.5,4.2-0.8,6.3-0.8c5.2,0,9.9,0.1,14.1,0.2
		c4.2,0.1,8,0.3,11.5,0.4c3.5,0.1,6.7,0.3,9.7,0.5v11h-31.3c-2.5,0-4.5,0.6-6,1.8c-1.5,1.2-2.2,3.1-2.2,5.7v14l34.4,0.7v10.4
		L284,97.5V111c0,2.1,0.4,3.8,1.2,4.9c0.8,1.1,1.8,1.9,3,2.3s2.5,0.6,3.9,0.6h31.4v11c-3.3,0.3-6.9,0.5-10.8,0.7s-7.8,0.3-11.8,0.4
		C296.8,131.1,293,131.2,289.3,131.3z"/>
	<path class="st2" d="M413.4,130.7V68.5c0-3.1,0.5-5.8,1.5-7.9c1-2.1,2.3-3.8,4-5.1c1.6-1.2,3.5-2.1,5.5-2.7
		c2.1-0.5,4.1-0.8,6.1-0.8c3.1,0.1,6.5,0.1,10.4,0.2c3.9,0,7.9,0.1,12.2,0.3c4.2,0.1,8.3,0.4,12.3,0.7V62h-32
		c-2.8,0-4.9,0.7-6.4,2.1c-1.5,1.4-2.2,3.5-2.2,6.2v18.2l35.6,0.6v8.3L424.8,98v32.5h-11.4V130.7z"/>
	<path class="st2" d="M553.6,130.7V52.1H565v78.6H553.6z"/>
	<path class="st2" d="M659.5,130.7V52.2h7.3l43,63.9V52.2h8.9v78.5h-7.3l-43-63.9v63.9H659.5z"/>
	<path class="st2" d="M810.7,130.7V52.2h9v78.5H810.7z"/>
	<path class="st2" d="M932.6,130.7V58h-26.3v-5.5h59.2V58h-26.3v72.8h-6.6V130.7z"/>
	<path class="st2" d="M1075.4,130.7v-27.2l-26.9-51h4.8l24.4,46.6l24.3-46.6h4.8l-26.9,51v27.2H1075.4z"/>
</g>
</svg>
