<svg width="349" height="361" viewBox="0 0 349 361" fill="none" xmlns="http://www.w3.org/2000/svg">
<path d="M324.856 205.039C328.987 200.913 334.304 195.603 339.583 190.336C351.359 178.58 351.365 159.513 339.59 147.752L327.115 135.292C282.452 179.902 215.616 188.865 162.035 162.187C198.249 168.875 235.779 163.665 269.035 145.807C291.282 133.858 295.507 103.722 277.646 85.883L204.002 12.3273C187.546 -4.10911 160.868 -4.10911 144.418 12.3273L65.0392 91.6111C117.316 69.4278 180.114 79.7123 222.63 122.471C157.767 91.0252 77.4141 102.182 23.5586 155.967C19.4274 160.093 14.1043 165.41 8.82483 170.683C-2.94473 182.445 -2.93849 201.499 8.82483 213.254L21.2933 225.708C65.9565 181.098 132.792 172.135 186.373 198.813C150.159 192.125 112.629 197.335 79.3736 215.193C57.1262 227.142 52.9014 257.278 70.7617 275.117L144.406 348.673C160.862 365.109 187.54 365.109 203.99 348.673L283.369 269.389C231.092 291.572 168.294 281.288 125.772 238.529C190.635 269.975 270.988 258.818 324.843 205.033L324.856 205.039Z" fill="#E53E76"/>
</svg>
