<?xml version="1.0" encoding="utf-8"?>
<!-- Generator: Adobe Illustrator 26.0.1, SVG Export Plug-In . SVG Version: 6.00 Build 0)  -->
<svg version="1.1" id="Layer_1" xmlns="http://www.w3.org/2000/svg" xmlns:xlink="http://www.w3.org/1999/xlink" x="0px" y="0px"
	 viewBox="0 0 104 84" style="enable-background:new 0 0 104 84;" xml:space="preserve">
<style type="text/css">
	.st0{fill-rule:evenodd;clip-rule:evenodd;fill:#52B2ED;}
</style>
<path class="st0" d="M51.3,56.2c-1.9,2.1-6.1,7.5-6.1,13.8s4.2,11.7,6.1,13.8C39,83.3,29.1,70.1,29.1,70.1S39,56.8,51.3,56.2z
	 M53.2,56.2c12.3,0.6,22.2,13.8,22.2,13.8s-9.9,13.2-22.2,13.8c1.9-2.1,6.1-7.5,6.1-13.8S55.1,58.3,53.2,56.2z"/>
<path class="st0" d="M51.3,0c-1.9,2.1-6.1,7.5-6.1,13.8c0,6.3,4.2,11.7,6.1,13.8C39,27.1,29.1,13.8,29.1,13.8S39,0.6,51.3,0z
	 M53.2,0c12.3,0.6,22.2,13.8,22.2,13.8s-9.9,13.2-22.2,13.8c1.9-2.1,6.1-7.5,6.1-13.8C59.3,7.5,55.1,2.1,53.2,0z"/>
<path class="st0" d="M25,28.1c12.3,0.7,22.2,13.8,22.2,13.8S37.3,55.1,25,55.8c1.9-2.1,6.1-7.5,6.1-13.8
	C31.1,35.6,26.9,30.2,25,28.1z M23.1,28.1c-1.9,2.1-6.1,7.5-6.1,13.8c0,6.3,4.2,11.7,6.1,13.8C10.8,55.1,0.9,41.9,0.9,41.9
	S10.8,28.7,23.1,28.1z"/>
<path class="st0" d="M79.5,28.1c-1.9,2.1-6.1,7.5-6.1,13.8c0,6.3,4.2,11.7,6.1,13.8c-12.3-0.7-22.2-13.8-22.2-13.8
	S67.2,28.7,79.5,28.1z M81.4,28.1c12.3,0.7,22.2,13.8,22.2,13.8s-9.9,13.2-22.2,13.8c1.9-2.1,6.1-7.5,6.1-13.8
	C87.5,35.6,83.3,30.2,81.4,28.1z"/>
<image style="display:none;overflow:visible;" width="835" height="834" xlink:href="8412B7D0.jpg"  transform="matrix(1 0 0 1 -372.5 -375.4255)">
</image>
</svg>
