<?xml version="1.0" encoding="utf-8"?>
<!-- Generator: Adobe Illustrator 26.0.1, SVG Export Plug-In . SVG Version: 6.00 Build 0)  -->
<svg version="1.1" id="Layer_1" xmlns="http://www.w3.org/2000/svg" xmlns:xlink="http://www.w3.org/1999/xlink" x="0px" y="0px"
	 viewBox="0 0 56.9 44.1" style="enable-background:new 0 0 56.9 44.1;" xml:space="preserve">
<style type="text/css">
	.st0{fill-rule:evenodd;clip-rule:evenodd;fill:#7F7F7F;}
	.st1{fill:#FFFFFF;filter:url(#Adobe_OpacityMaskFilter);}
	.st2{mask:url(#mask0_15_38_00000038411144710138587510000011660846476154367422_);}
	.st3{fill:#FFFFFF;filter:url(#Adobe_OpacityMaskFilter_00000006707919352266692490000011140399206921791123_);}
	.st4{display:none;mask:url(#mask1_15_38_00000016064304131827780390000003699579514719034265_);}
	.st5{display:inline;fill-rule:evenodd;clip-rule:evenodd;fill:#FFFFFF;}
</style>
<path class="st0" d="M17.7,41H51l-10.3-6.3H7.4L17.7,41z M54.4,42.9H17.4c-0.2,0-0.3,0-0.5-0.1L3.6,34.5c-0.4-0.2-0.5-0.7-0.4-1.1
	c0.1-0.4,0.5-0.7,0.9-0.7H41c0.2,0,0.3,0,0.5,0.1l13.3,8.2c0.4,0.2,0.5,0.7,0.4,1.1C55.2,42.6,54.8,42.9,54.4,42.9z"/>
<defs>
	<filter id="Adobe_OpacityMaskFilter" filterUnits="userSpaceOnUse" x="0.8" y="-0.3" width="52.2" height="10.1">
		<feColorMatrix  type="matrix" values="1 0 0 0 0  0 1 0 0 0  0 0 1 0 0  0 0 0 1 0"/>
	</filter>
</defs>
<mask maskUnits="userSpaceOnUse" x="0.8" y="-0.3" width="52.2" height="10.1" id="mask0_15_38_00000038411144710138587510000011660846476154367422_">
	<path class="st1" d="M0.8-0.3H53V9.8H0.8V-0.3z"/>
</mask>
<g class="st2">
	<path class="st0" d="M15.4,7.9h33.3L38.5,1.6H5.1L15.4,7.9z M52.1,9.8H15.1c-0.2,0-0.3,0-0.5-0.1L1.3,1.4C0.9,1.2,0.8,0.8,0.9,0.4
		C1,0,1.4-0.3,1.8-0.3h36.9c0.2,0,0.3,0,0.5,0.1l13.3,8.2c0.4,0.2,0.5,0.7,0.4,1.1C52.9,9.5,52.5,9.8,52.1,9.8z"/>
</g>
<path class="st0" d="M24.1,21.4c0-2.8,2.2-5.1,5-5.1c2.8,0,5.1,2.2,5.1,5c0,2.8-2.2,5.1-5,5.1C26.4,26.4,24.1,24.2,24.1,21.4z"/>
<path class="st0" d="M29.1,17.1L29.1,17.1c-1.2,0-2.3,0.5-3,1.3c-0.8,0.8-1.2,1.9-1.2,3c0,2.4,1.9,4.2,4.3,4.2c2.4,0,4.2-2,4.2-4.3
	c0-1.1-0.5-2.2-1.3-3C31.3,17.5,30.2,17.1,29.1,17.1z M29.1,27.1c-3.2,0-5.8-2.6-5.8-5.8c0-1.6,0.6-3,1.7-4.1
	c1.1-1.1,2.5-1.7,4.1-1.7c0,0,0,0,0.1,0c1.5,0,3,0.6,4.1,1.7c1.1,1.1,1.7,2.5,1.7,4.1C34.9,24.5,32.4,27.1,29.1,27.1
	C29.1,27.1,29.1,27.1,29.1,27.1z"/>
<defs>
	
		<filter id="Adobe_OpacityMaskFilter_00000001640029050177369790000011159516990530016398_" filterUnits="userSpaceOnUse" x="70.9" y="15.1" width="122.3" height="13.8">
		<feColorMatrix  type="matrix" values="1 0 0 0 0  0 1 0 0 0  0 0 1 0 0  0 0 0 1 0"/>
	</filter>
</defs>
<mask maskUnits="userSpaceOnUse" x="70.9" y="15.1" width="122.3" height="13.8" id="mask1_15_38_00000016064304131827780390000003699579514719034265_">
	<path style="fill:#FFFFFF;filter:url(#Adobe_OpacityMaskFilter_00000001640029050177369790000011159516990530016398_);" d="
		M0.8,42.9h192.3V-0.3H0.8V42.9z"/>
</mask>
<g class="st4">
	<path class="st5" d="M70.9,28.9h3.4V15.1h-3.4V28.9z"/>
	<path class="st5" d="M80.2,15.1h5l5.4,9.3h0l-0.1-9.3h3.2v13.8h-4.1l-6.3-10.7h0l0.1,10.7h-3.2V15.1z"/>
	<path class="st5" d="M102.9,17.8H99v-2.7h11.3v2.7h-3.9v11.1h-3.4V17.8z"/>
	<path class="st5" d="M115.4,15.1h9.8v2.7h-6.3v3.1h4.9V23h-4.9v3.2h6.5v2.7h-10V15.1z"/>
	<path class="st5" d="M137.3,21.7c1.4,0,2.2-0.7,2.2-1.9c0-1.2-0.8-2-2.4-2h-3v3.9H137.3z M130.7,15.1h6.4c3.7,0,5.6,1.5,5.6,4.1
		c0,1.8-0.8,2.9-2.1,3.3v0c1.4,0.3,2,1.4,2,3v3.4h-3.4v-3.3c0-1.3-0.5-1.8-1.8-1.8h-3.3v5.1h-3.4V15.1z"/>
	<path class="st5" d="M148.5,15.1h3.4v11.1h6.3v2.7h-9.7V15.1z"/>
	<path class="st5" d="M172.1,23.9l-2-6h0l-2,6H172.1z M172.9,26.1h-5.5l-0.9,2.8h-3.5l5.3-13.8h4.3l5.3,13.8h-4L172.9,26.1z"/>
	<path class="st5" d="M184.3,23.6l-5.4-8.5h4.4l3,5.5h0.1l3-5.5h3.8l-5.5,8.5v5.3h-3.4V23.6z"/>
</g>
</svg>
