<?xml version="1.0" encoding="utf-8"?>
<!-- Generator: Adobe Illustrator 26.0.1, SVG Export Plug-In . SVG Version: 6.00 Build 0)  -->
<svg version="1.1" id="Layer_1" xmlns="http://www.w3.org/2000/svg" xmlns:xlink="http://www.w3.org/1999/xlink" x="0px" y="0px"
	 viewBox="0 0 31 30" style="enable-background:new 0 0 31 30;" xml:space="preserve">
<style type="text/css">
	.st0{clip-path:url(#SVGID_00000168083893412591580040000004460998466507496606_);}
	.st1{display:none;fill:#FFFFFF;}
	.st2{fill-rule:evenodd;clip-rule:evenodd;fill:url(#SVGID_00000102522698983027762910000014129659769881086110_);}
	.st3{fill-rule:evenodd;clip-rule:evenodd;fill:#7F7F7F;}
</style>
<g>
	<defs>
		<rect id="SVGID_1_" width="162.6" height="29.7"/>
	</defs>
	<clipPath id="SVGID_00000001644945423495102590000000943920395111706032_">
		<use xlink:href="#SVGID_1_"  style="overflow:visible;"/>
	</clipPath>
	<g style="clip-path:url(#SVGID_00000001644945423495102590000000943920395111706032_);">
		<path class="st1" d="M45.7,25.8V9.7h-5.5V6.9h14.5v2.8h-5.5v16.1H45.7z M59,10.4c-0.6,0-1.1-0.2-1.6-0.6c-0.2-0.2-0.4-0.4-0.5-0.6
			c-0.1-0.2-0.2-0.5-0.1-0.8c0-0.3,0-0.5,0.1-0.8c0.1-0.2,0.3-0.5,0.5-0.6c0.4-0.4,1-0.6,1.6-0.6c0.6,0,1.1,0.2,1.6,0.6
			c0.2,0.2,0.4,0.4,0.5,0.6c0.1,0.2,0.2,0.5,0.1,0.8c0,0.3,0,0.5-0.1,0.8s-0.3,0.5-0.5,0.6C60.1,10.2,59.6,10.4,59,10.4L59,10.4z
			 M57.3,25.8V12.4h3.5v13.4H57.3z M64.4,25.8V12.4h3l0.3,2.3c0.4-0.8,1-1.4,1.8-1.9c0.8-0.5,1.8-0.7,2.8-0.7c0.7,0,1.4,0.1,2.1,0.3
			c0.7,0.3,1.3,0.7,1.8,1.2c1,1.3,1.5,2.9,1.4,4.6v7.6H74v-7.2c0.1-0.9-0.2-1.9-0.7-2.6c-0.3-0.3-0.6-0.6-1-0.7
			C72,15.1,71.5,15,71.1,15c-0.4,0-0.9,0.1-1.3,0.2c-0.4,0.2-0.8,0.4-1.1,0.8c-0.7,0.8-1,1.8-0.9,2.9v6.9H64.4z M80.8,25.8V6.4h3.5
			v11.5l4.8-5.4h4.1l-5.5,6.1l6.4,7.3h-4.3l-5.4-6.7v6.7H80.8z M101.5,26.2c-1.3,0-2.5-0.3-3.6-0.9c-1-0.6-1.9-1.4-2.5-2.4
			c-0.6-1.1-0.9-2.4-0.9-3.6c0-1.3,0.3-2.6,0.9-3.7c0.6-1.1,1.4-1.9,2.4-2.5c1.1-0.6,2.4-0.9,3.7-0.9c1.2,0,2.4,0.3,3.5,0.9
			c1,0.6,1.8,1.4,2.4,2.4c0.6,1,0.9,2.2,0.9,3.3c0,0.2,0,0.4,0,0.6c0,0.2,0,0.4,0,0.7H98c0,0.5,0.1,0.9,0.3,1.3
			c0.2,0.4,0.5,0.8,0.8,1.1c0.7,0.6,1.5,0.9,2.4,0.9c0.6,0,1.2-0.1,1.8-0.5c0.5-0.3,0.8-0.7,1.1-1.2h3.5c-0.3,0.8-0.7,1.6-1.3,2.3
			c-0.6,0.7-1.3,1.3-2.2,1.6C103.5,26,102.5,26.2,101.5,26.2z M101.5,14.9c-0.8,0-1.6,0.2-2.2,0.7c-0.7,0.5-1.1,1.3-1.2,2.2h6.7
			c0-0.4-0.1-0.8-0.3-1.2c-0.2-0.4-0.4-0.7-0.7-1C103.1,15.2,102.3,14.9,101.5,14.9z M111.1,25.8V12.4h3.1l0.3,2.5
			c0.5-0.8,1.2-1.6,2-2.1c0.9-0.5,1.9-0.8,3-0.8v3.6h-1c-0.7,0-1.4,0.1-2,0.4c-0.6,0.2-1.1,0.7-1.4,1.2c-0.4,0.7-0.5,1.6-0.5,2.4
			v6.1H111.1z M121.8,25.8V12.4h3.1l0.3,2.3c0.4-0.8,1-1.4,1.8-1.9c0.8-0.5,1.8-0.7,2.8-0.7c0.7,0,1.4,0.1,2.1,0.3
			c0.7,0.3,1.3,0.7,1.8,1.2c1,1.3,1.5,2.9,1.4,4.6v7.6h-3.5v-7.2c0.1-0.9-0.2-1.9-0.7-2.6c-0.3-0.3-0.6-0.6-1-0.7
			c-0.4-0.2-0.8-0.2-1.2-0.2c-0.4,0-0.9,0.1-1.3,0.2c-0.4,0.2-0.8,0.4-1.1,0.8c-0.7,0.8-1,1.8-0.9,2.9v6.9H121.8z M144.8,26.2
			c-1.3,0-2.5-0.3-3.6-0.9c-1-0.6-1.9-1.4-2.5-2.4c-0.6-1.1-0.9-2.4-0.9-3.6c0-1.3,0.3-2.6,0.9-3.7c0.6-1.1,1.4-1.9,2.4-2.5
			c1.1-0.6,2.4-0.9,3.7-0.9c1.2,0,2.4,0.3,3.5,0.9c1,0.6,1.8,1.4,2.4,2.4c0.6,1,0.9,2.2,0.8,3.3c0,0.2,0,0.4,0,0.6
			c0,0.2,0,0.4,0,0.7h-10.2c0,0.5,0.1,0.9,0.3,1.3c0.2,0.4,0.5,0.8,0.8,1.1c0.7,0.6,1.5,0.9,2.4,0.9c0.6,0,1.2-0.1,1.8-0.5
			c0.5-0.3,0.8-0.7,1.1-1.2h3.5c-0.3,0.8-0.7,1.6-1.3,2.3c-0.6,0.7-1.3,1.3-2.2,1.6C146.7,26,145.8,26.2,144.8,26.2z M144.8,14.9
			c-0.8,0-1.6,0.2-2.2,0.7c-0.7,0.5-1.1,1.3-1.2,2.2h6.7c0-0.4-0.1-0.8-0.3-1.2c-0.2-0.4-0.4-0.7-0.7-1
			C146.4,15.2,145.6,14.9,144.8,14.9z M160.1,25.8c-1.2,0.1-2.4-0.3-3.4-1c-0.8-0.7-1.3-1.9-1.3-3.6v-5.8h-2.3v-2.9h2.3l0.4-3.6h3.1
			v3.6h3.6v2.9h-3.6v5.9c0,0.2,0,0.5,0.1,0.7c0.1,0.2,0.2,0.4,0.4,0.6c0.4,0.3,0.9,0.4,1.4,0.4h1.7v2.9H160.1z"/>
		
			<linearGradient id="SVGID_00000104674355151712592180000012932001665652526269_" gradientUnits="userSpaceOnUse" x1="22.6229" y1="9.9238" x2="8.6771" y2="22.6274" gradientTransform="matrix(1 0 0 -1 0 32)">
			<stop  offset="0" style="stop-color:#30BCD0"/>
			<stop  offset="1" style="stop-color:#CA28CC"/>
		</linearGradient>
		<path style="fill-rule:evenodd;clip-rule:evenodd;fill:url(#SVGID_00000104674355151712592180000012932001665652526269_);" d="
			M25.4,6.7l2.8-0.4l1.6,2.8l-1.7,2c0.2,0.6,0.4,1.2,0.5,1.9l2.5,0.9l0,3.2l-2.5,0.8c-0.1,0.6-0.3,1.3-0.5,1.9l1.7,2.1l-1.6,2.7
			l-2.6-0.5c-0.4,0.5-0.9,0.9-1.4,1.4l0.5,2.7l-2.8,1.6l-1.3-1.2v-5.1c1.1-0.7,2.1-1.7,2.9-2.8c0.7-1.1,1.2-2.4,1.5-3.7
			c0.2-1.3,0.1-2.7-0.2-4s-1-2.5-1.9-3.5L25.4,6.7L25.4,6.7z M8.2,9.5c-0.8,1-1.5,2.2-1.8,3.5c-0.3,1.3-0.4,2.6-0.2,4
			c0.2,1.3,0.7,2.6,1.5,3.7c0.7,1.1,1.7,2.1,2.9,2.8v5l-1.5,1.2L6.3,28l0.5-2.6C6.4,25,5.9,24.5,5.5,24l-2.7,0.5l-1.6-2.8l1.7-2
			c-0.2-0.6-0.4-1.2-0.5-1.9L0,17l0-3.2l2.5-0.8c0.1-0.6,0.3-1.3,0.5-1.9L1.3,9l1.6-2.7l2.6,0.5L8.2,9.5z"/>
		<path class="st3" d="M6.5,2.8l2.8-1.6l2,1.7c0.6-0.2,1.2-0.4,1.9-0.5L14,0l3.2,0L18,2.5c0.6,0.1,1.3,0.3,1.9,0.5L22,1.3l2.7,1.6
			l-0.5,2.6c0.2,0.2,0.4,0.3,0.6,0.5l-2.7,2.7c-0.5-0.4-0.9-0.8-1.5-1.2l-1.6-1v9.4l-1.7,1l-1.7,1l-1.7-1l-1.7-1V6.6l-1.6,1
			C9.9,7.9,9.4,8.3,8.9,8.8L6.3,6.1c0.2-0.2,0.4-0.4,0.7-0.6L6.5,2.8z"/>
	</g>
</g>
</svg>
