<?xml version="1.0" encoding="utf-8"?>
<!-- Generator: Adobe Illustrator 26.0.1, SVG Export Plug-In . SVG Version: 6.00 Build 0)  -->
<svg version="1.1" id="kintsugi" xmlns="http://www.w3.org/2000/svg" xmlns:xlink="http://www.w3.org/1999/xlink" x="0px" y="0px"
	 viewBox="0 0 52.1 55.6" style="enable-background:new 0 0 52.1 55.6;" xml:space="preserve">
<style type="text/css">
	.st0{fill:url(#SVGID_1_);}
	.st1{fill:#DADADA;}
	.st2{display:none;fill:#DADADA;}
</style>
<g>
	
		<linearGradient id="SVGID_1_" gradientUnits="userSpaceOnUse" x1="6426.1704" y1="2980.6733" x2="6426.1704" y2="2780.1726" gradientTransform="matrix(0.125 0 0 0.125 -776.9902 -332.3144)">
		<stop  offset="0" style="stop-color:#603211"/>
		<stop  offset="0.17" style="stop-color:#DD7D26"/>
		<stop  offset="0.35" style="stop-color:#603211"/>
		<stop  offset="0.54" style="stop-color:#9C3520"/>
		<stop  offset="0.77" style="stop-color:#DD7D26"/>
		<stop  offset="1" style="stop-color:#603211"/>
	</linearGradient>
	<path class="st0" d="M35.1,18.8c-2.3-2.3-5.5-3.6-8.8-3.6c0,0-0.1,0-0.1,0c-6.9,0.1-12.5,5.8-12.4,12.7c0.1,6.8,5.7,12.3,12.5,12.4
		h0.1c6.9-0.1,12.5-5.7,12.4-12.7C38.8,24.3,37.5,21.1,35.1,18.8L35.1,18.8z"/>
	<path class="st1" d="M31.7,17.3c-1.5-0.4-2.7-0.1-3.6,0.9c-0.1,0.1-0.2,0.3-0.3,0.4c-0.3,0.3-0.5,0.6-1,0.7c-0.7,0.1-1.3,0.2-2,0.1
		c-0.2,0-0.4-0.1-0.5-0.1c-0.5-0.1-0.8-0.2-1.4,0.4c-0.2,0.2-0.4,0.4-0.5,0.6c-0.3,0.4-0.5,0.7-0.9,0.9c-0.2,0.1-0.4,0.1-0.6,0.1
		c0,0,0,0-0.1,0l0,0c-0.3,0-0.6,0-0.9-0.1c-0.2,0-0.5-0.1-0.7-0.1c0.3-0.5,0.6-0.9,0.8-1.4c0.4-0.1,0.8-0.3,1.1-0.6
		c0.2-0.2,0.4-0.3,0.6-0.4c0.7-0.4,1-0.7,1.6-1.4c0.6-0.6,1.2-1,1.9-1.4c0.4-0.2,0.7-0.5,0.9-0.8c2.5,0,4.7,0.6,6.8,1.9
		C32.8,17.3,32.3,17.5,31.7,17.3z"/>
	<path class="st1" d="M38.5,26c-0.2-0.1-0.3-0.2-0.5-0.2c-0.3-0.2-0.5-0.3-0.8-0.3l-0.7-0.4c-1.2-0.2-1.6-0.1-2.8-0.4
		c-0.5-0.2-1.1-0.2-1.7-0.2l0,0l0,0c-0.4,0-0.8,0.1-1.3,0.1l-0.3,0c-0.1,0-0.3,0-0.4,0.1c-1,0.2-2.7,0.4-3.2-0.2l0,0
		c-0.9-0.5-1.9-0.8-2.9-0.8c-1.6,0-2.1-0.4-3-1.2c-0.2-0.1-0.3-0.3-0.5-0.4c0.1,0,0.2,0,0.3,0c0.4,0.2,0.9,0.2,1.3,0.2
		c0.1,0,0.2,0,0.3,0c0.2,0,0.4-0.1,0.6-0.3c0.1-0.1,0.2-0.1,0.2-0.2c0.2-0.1,0.4-0.2,0.6-0.1c0.1,0,0.2,0,0.3,0
		c0.4-0.1,0.7-0.3,1-0.5c0.3-0.2,0.5-0.4,0.9-0.5c0.1,0,0.2,0,0.3,0c0.2,0,0.5-0.1,0.7-0.2c0.1-0.1,0.2-0.2,0.3-0.3
		c0.1-0.1,0.2-0.2,0.4-0.3l0,0c0.5-0.2,0.7-0.5,0.9-0.9c0.1-0.1,0.6-0.2,0.8-0.4c1-1.1,1.9-1.5,3.5-1.1c0.8,0.2,1.1,0.2,1.4,0
		c2.7,2,4.5,5,4.9,8.4C38.6,26.1,38.6,26.1,38.5,26z"/>
	<path class="st1" d="M22.6,36.9c0-0.1,0-0.2,0-0.2c0-0.2,0-0.4-0.1-0.6c-0.1-0.4-0.2-0.5-0.4-0.6c-0.1-0.1-0.2-0.2-0.3-0.3
		c-0.2-0.2-0.3-0.5-0.3-0.8l0,0c0.1,0.1,0.2,0.1,0.3,0.2c0.1,0,0.1,0.1,0.2,0.1c0.3,0.2,0.8,0.4,1,0.4c0.2,0,0.4-0.1,0.5-0.3
		c0.1-0.1,0.4,0.1,0.6,0.1c0.3-0.1,0.6-0.1,1,0c0.2,0.1,0.3,0.1,0.4,0.2c0.2,0.1,0.4,0.2,0.6,0.2c0.3,0.2,0.7,0.3,1.1,0.4
		c0.2,0,0.4,0,0.6,0c0.4,0,0.8,0.1,1.1,0.2c0.8,0.4,1,0.4,1.8,0.3c0.6-0.1,1.5-0.1,2.1,0c0.6,0.1,1.1,0.4,1.7,0.7
		c0,0.1,0.1,0.2,0.1,0.3c-2.2,2-5,3.1-8,3.1c-0.3,0-0.5,0-0.8,0c-0.1-0.1-0.3-0.2-0.4-0.3c-0.2-0.1-0.3-0.2-0.5-0.2
		c-0.3-0.1-0.5-0.2-0.6-0.3c-0.2-0.2-0.2-0.5-0.2-0.7c0-0.2,0-0.3,0-0.5c-0.1-0.2-0.4-0.4-0.6-0.5c-0.2-0.1-0.3-0.2-0.5-0.3
		c-0.1-0.1-0.3-0.2-0.4-0.4l0,0C22.7,36.9,22.6,36.9,22.6,36.9z"/>
	<path class="st1" d="M19.5,17.9c0,0.3,0,0.6,0.1,1c0.1,0.4,0.1,0.8-0.1,1.3l0,0.1h0v0c-0.2,0.5-0.7,1.3-0.9,1.7
		c-0.5-0.1-0.8-0.5-1-0.9c-0.2-0.3-0.4-0.5-0.6-0.8c-0.1-0.1-0.3-0.2-0.4-0.3c0.9-1.1,2-2.1,3.2-2.8C19.6,17.3,19.6,17.6,19.5,17.9z
		"/>
	<path class="st1" d="M35.2,36.5c0-0.3,0-0.5,0-0.8c0-1.4-0.1-1.8-1-2.6l0,0c-0.7-0.6-1.5-0.9-1.8-1.8c-0.2-0.5-0.2-1.1-0.2-1.8
		c0-0.3,0-0.6,0-0.9c0.1-0.3,0.2-0.6,0.3-0.8c0.2-0.3,0.4-0.7,0.4-1.1c0-0.3,0-0.1-0.1-0.5c-0.1-0.4-0.3-0.6-0.6-0.8
		c0.5,0,1,0.1,1.5,0.2c1.2,0.3,2.3-0.1,3.4,0.1l0.1,0c0.3,0.1,0.5,0.2,0.8,0.3c0.2,0.1,0.3,0.2,0.5,0.3c0.1,0,0.2,0.1,0.4,0.1
		c0.1,0.4,0.1,0.9,0.1,1.3C38.9,31.1,37.6,34.2,35.2,36.5L35.2,36.5z"/>
	<path class="st1" d="M15.2,31.4c0.1,0,0.2,0.1,0.3,0.1c0.4,0.2,0.9,0.4,1.2,0.6c0.4,0.3,0.7,0.6,1,1c0.3,0.5,0.4,0.8,0.9,1.1
		l0.2,0.1c0.6,0.3,1.1,0.6,1.4,1.2c0.2,0.4,0.6,0.5,0.9,0.7c0.2,0.1,0.4,0.2,0.5,0.3l0.1,0.1l0.1,0.1c0.1,0.2,0.2,0.3,0.5,0.6
		c0.2,0.1,0.3,0.3,0.5,0.4c0.3,0.2,0.5,0.3,0.7,0.5c0.1,0.2,0.1,0.3,0,0.5c0,0.3-0.1,0.6,0.2,0.9c0.2,0.2,0.5,0.3,0.8,0.4
		c0.2,0.1,0.4,0.1,0.6,0.3c0.1,0.1,0.2,0.2,0.3,0.3c-5.3-0.5-9.7-4.2-11.1-9.3C14.5,31.2,14.8,31.3,15.2,31.4z"/>
	<path class="st1" d="M17.2,21.3c0.2,0.4,0.4,0.7,0.8,0.9c-0.4,0.1-0.5,0-0.9,0.3c-0.2,0.2-0.6,0.1-0.8,0.3
		c-0.3,0.3-0.4,0.9-0.8,1.1c-0.4,0.2-0.9,0.4-1.3,0.5c0.5-1.6,1-2.8,2-4.1c0.1,0.1,0.2,0.1,0.3,0.2C16.8,20.7,17,21,17.2,21.3z"/>
	<path class="st1" d="M33,33.2L33,33.2c0.9,0.8,1.1,1,1.1,2.1c0,0.2,0,0.4,0,0.6c-0.5-0.3-1-0.6-1.6-0.7c-0.6-0.1-1.5,0-2.1,0
		c-0.8,0.1-0.7-0.1-1.4-0.5c-0.5-0.3-1.1-0.1-1.5-0.1c-0.2,0-0.4,0-0.6,0c-0.4-0.1-0.7-0.2-1-0.3c-0.2-0.1-0.1-0.3-0.3-0.3
		c-0.1,0-0.6,0-0.7-0.1c-0.4-0.2-1-0.4-1.3-0.3c-0.2,0-0.3,0.1-0.4,0.3c-0.1,0.1-0.3,0.2-0.4,0.3c-0.2,0-0.6-0.2-0.9-0.4
		c-0.1-0.1-0.2-0.1-0.2-0.1c-0.2-0.1-0.3-0.2-0.5-0.3c0,0,0,0,0,0l0,0c-0.3-0.3-0.7-0.5-1-0.8c-0.6-0.6-1.4-1-2.2-1.3
		c0.5-0.1,0.9-0.3,1.4-0.6c0.4-0.2,0.8-0.4,1.2-0.6C21,30,21.6,30,22.1,30c0.6,0,1.2,0,1.7-0.2c0.6-0.2,1-0.6,1.4-1
		c0.4-0.4,1-0.5,1.5-0.6c0.5-0.1,1.1-0.5,1.8-0.6c0.9-0.1,1.8-0.1,2.4-0.3c0.3,0.4,0.4,1,0.5,1.7c0,0,0,0,0,0l0,0c0,0.3,0,0.5,0,0.8
		c0,0.6,0,1.2,0.1,1.6C31.9,32.2,32.4,32.6,33,33.2z"/>
	<path class="st1" d="M14.1,30.7c-0.2-0.9-0.3-1.8-0.3-2.8c0-1,0.1-2,0.3-2.9c0.5-0.1,0.9-0.3,1.3-0.5c0.4-0.2,0.7-0.3,1-0.6
		c0.2-0.2,0.3-0.3,0.5-0.5c0.7-0.6,1.3-0.5,2-0.4c0.2,0,0.3,0,0.5,0.1c0.2,0.2,0.4,0.1,0.6,0.3c0.8,0.7,1.3,1.4,2.8,1.4
		c1.1,0,1.9,0,2.8,0.5c0,0,0.1,0,0.1,0c0.2,0.1,0.5,0.3,0.7,0.5l0.2,0.1c0.5,0.3,0.9,0.7,1.6,0.8c0.2,0,0.4,0,0.7,0
		c0.4,0,0.8,0,1.1,0.3c-0.6,0.2-1.5,0.3-2.4,0.3c-0.7,0.1-1.4,0.1-1.9,0.2c-0.6,0.2-1.1,0.6-1.5,1c-0.4,0.4-0.8,0.8-1.3,0.9
		c-0.5,0.2-1.1,0.2-1.7,0.2s-1.1,0-1.7,0.2c-0.4,0.1-0.8,0.3-1.2,0.6c-0.5,0.3-1.1,0.6-1.7,0.6c-0.2-0.1-0.4-0.1-0.6-0.1l-0.1,0v0
		C15.2,30.7,14.7,30.7,14.1,30.7z"/>
	<path class="st1" d="M7.9,14.5c-1.2,0-2.5-0.1-3.7-0.2c-2.5-0.3-3.8-0.9-4.1-2c-0.5-1.7,2-3.1,3.9-4c7.1-3.5,22.8-7.1,34.8-8
		c3.7-0.3,6.9-0.3,9.1-0.1c2.5,0.3,3.8,0.9,4.1,2c0.5,1.7-2,3.1-3.9,4c-7.1,3.5-22.8,7.1-34.8,8C11.3,14.4,9.5,14.5,7.9,14.5z
		 M38.9,1l0.1,0.8C27,2.7,11.6,6.2,4.6,9.6c-3,1.5-3.1,2.3-3.1,2.3c0.1,0.4,2.4,1.6,11.7,0.8c11.9-1,27.3-4.5,34.3-7.9
		c3-1.5,3.1-2.3,3.1-2.3C50.5,2.2,48.2,1,38.9,1.7L38.9,1z"/>
	<path class="st1" d="M7.9,55.6c-1.2,0-2.5-0.1-3.7-0.2c-2.5-0.3-3.8-0.9-4.1-2c-0.5-1.7,2-3.1,3.9-4c7.1-3.5,22.8-7.1,34.8-8
		c3.7-0.3,6.9-0.3,9.1-0.1c2.5,0.3,3.8,0.9,4.1,2c0.5,1.7-2,3.1-3.9,4c-7.1,3.5-22.8,7.1-34.8,8C11.3,55.6,9.5,55.6,7.9,55.6z
		 M38.8,42.2l0.1,0.8c-11.9,1-27.3,4.5-34.3,7.9c-3,1.5-3.1,2.3-3.1,2.3c0.1,0.4,2.4,1.6,11.7,0.8c11.9-1,27.3-4.5,34.3-7.9
		c3-1.5,3.1-2.3,3.1-2.3c-0.1-0.4-2.4-1.6-11.7-0.8L38.8,42.2z"/>
	<path class="st2" d="M62.5,27.4c1.7,1.6,3.6,3.1,5.6,4.3L67.2,33c-2.7-1.6-5.1-3.6-7.2-5.9l0,5.9h-1.6V17H60l0,7.6
		c0.5,0.6,0.9,1.1,1.4,1.6l3.3-3.5h2.1L62.5,27.4z"/>
	<path class="st2" d="M73.5,32.9H72v-8.6h-1v-1.6h2.5L73.5,32.9L73.5,32.9z M71.4,19.5c0-0.7,0.5-1.2,1.2-1.2c0.7,0,1.2,0.5,1.2,1.2
		c0,0.7-0.5,1.2-1.2,1.2l0,0C72,20.7,71.5,20.2,71.4,19.5C71.4,19.5,71.4,19.5,71.4,19.5z"/>
	<path class="st2" d="M88.1,32.3l-1.5,0.6L84.3,27c-0.7-1.8-1.8-2.7-3.4-2.7h-0.7v8.6h-1.5V22.8h2.3c2.3,0,3.9,1.2,4.8,3.7
		L88.1,32.3z"/>
	<path class="st2" d="M96.4,31.4v1.5h-1.3c-1.5,0-2.7-1.2-2.7-2.6v-6.1h-2.1v-1.5h2.1v-3.4h1.5v3.4h2.4v1.5h-2.4v5.9
		c0,0.7,0.4,1.2,1.2,1.2L96.4,31.4L96.4,31.4z"/>
	<path class="st2" d="M105.7,30.1c0-1.1-1.5-1.4-2.6-1.7c-1.5-0.4-3.2-1.1-3.2-3c0-1.7,1.7-2.9,3.7-2.9c1.9,0,3.1,1.2,3.5,2.8h-1.6
		c-0.2-0.7-0.8-1.4-2.1-1.4c-1,0-1.9,0.6-1.9,1.3s0.4,1.4,2.6,1.9c1.8,0.4,3.2,1.2,3.2,2.9c0,1.8-1.4,3.1-3.5,3.1
		c-2,0-3.4-1.2-3.8-3h1.7c0.3,1,0.8,1.6,2.2,1.6C105.2,31.8,105.7,30.9,105.7,30.1z"/>
	<path class="st2" d="M111.2,22.8h1.5V29c0,1.9,1.4,2.6,2.8,2.6c1.6,0,2.7-1.1,2.7-2.8v-6h1.5v10.2h-1.5v-1.2
		c-0.8,1.1-1.7,1.4-2.9,1.4c-2.4,0-4.1-1.3-4.1-4.1L111.2,22.8L111.2,22.8z"/>
	<path class="st2" d="M124.1,28c0-3,2.3-5.2,5-5.2h5.8v1.5h-2.2c0.9,0.9,1.4,2.3,1.4,3.7c0,2.9-2.2,5.3-5,5.3
		C126.4,33.3,124.1,30.9,124.1,28z M135.4,32.4c-2,4.2-6.3,6.6-11,6.1l0.2-1.5c3.9,0.4,7.8-1.6,9.5-5.3L135.4,32.4z M125.7,28
		c0,2.1,1.5,3.8,3.5,3.8c1.9,0,3.5-1.7,3.5-3.8c0-1.9-1.6-3.7-3.5-3.7C127.3,24.3,125.7,25.8,125.7,28z"/>
	<path class="st2" d="M141.3,32.9h-1.5v-8.6h-1v-1.6h2.5L141.3,32.9L141.3,32.9z M139.2,19.5c0-0.7,0.5-1.2,1.2-1.2
		c0.7,0,1.2,0.5,1.2,1.2c0,0.7-0.5,1.2-1.2,1.2l0,0C139.8,20.7,139.3,20.2,139.2,19.5C139.2,19.5,139.2,19.5,139.2,19.5z"/>
</g>
</svg>
