<?xml version="1.0" encoding="utf-8"?>
<!-- Generator: Adobe Illustrator 26.0.1, SVG Export Plug-In . SVG Version: 6.00 Build 0)  -->
<svg version="1.1" id="Layer_1" xmlns="http://www.w3.org/2000/svg" xmlns:xlink="http://www.w3.org/1999/xlink" x="0px" y="0px"
	 viewBox="0 0 216.8 188" style="enable-background:new 0 0 216.8 188;" xml:space="preserve">
<style type="text/css">
	.st0{fill:url(#SVGID_1_);}
	.st1{fill:url(#SVGID_00000035526043081497926250000001583660518447212713_);}
	.st2{fill:url(#SVGID_00000039854655676699795410000010304532518558207678_);}
	.st3{fill:url(#SVGID_00000173875375933541601090000009214944506185221290_);}
	.st4{display:none;fill:#1C1E1C;}
</style>
<linearGradient id="SVGID_1_" gradientUnits="userSpaceOnUse" x1="201.7804" y1="974.7555" x2="107.9869" y2="1077.0631" gradientTransform="matrix(1 0 0 1 0 -888.9818)">
	<stop  offset="0.2097" style="stop-color:#02C86A"/>
	<stop  offset="0.3359" style="stop-color:#14EA85"/>
</linearGradient>
<path class="st0" d="M216.2,99l-14.5-13.3l-18.9,20.6c-2.3,2.5-5.7,3.8-9,3.5l-15.5-1.5c-2.3-0.2-4.5,0.6-6,2.3l-58.8,64.2L108,188
	l67.3-73.4c1.8-1.9,4.4-2.8,7-2.1l13.6,3.3c2.5,0.6,5.2-0.2,7-2.1L216.2,99z"/>
<linearGradient id="SVGID_00000080910655740593277530000009832382632194001814_" gradientUnits="userSpaceOnUse" x1="170.7105" y1="946.1831" x2="76.9136" y2="1048.4943" gradientTransform="matrix(1 0 0 1 0 -888.9818)">
	<stop  offset="0.3216" style="stop-color:#02C86A"/>
	<stop  offset="0.5064" style="stop-color:#11ED85"/>
</linearGradient>
<path style="fill:url(#SVGID_00000080910655740593277530000009832382632194001814_);" d="M185.1,70.4l-14.5-13.3L137,93.8
	c-2.3,2.5-5.7,3.8-9,3.5l-15.5-1.5c-2.3-0.2-4.5,0.6-6,2.3l-44.1,48.1l14.5,13.3l52.5-57.3c1.8-1.9,4.4-2.8,7-2.1l13.6,3.3
	c2.5,0.6,5.2-0.2,7-2.1L185.1,70.4z"/>
<linearGradient id="SVGID_00000067926182253458073000000013058289327076408243_" gradientUnits="userSpaceOnUse" x1="139.4392" y1="917.6177" x2="45.6925" y2="1019.8749" gradientTransform="matrix(1 0 0 1 0 -888.9818)">
	<stop  offset="0.5012" style="stop-color:#1FD17D"/>
	<stop  offset="0.6414" style="stop-color:#2CE28C"/>
</linearGradient>
<path style="fill:url(#SVGID_00000067926182253458073000000013058289327076408243_);" d="M153.9,41.9l-14.5-13.3L91,81.3
	c-2.3,2.5-5.7,3.8-9,3.5l-15.5-1.5c-2.3-0.2-4.5,0.6-6,2.3l-29.3,32l14.5,13.3l37.7-41.2c1.8-1.9,4.4-2.8,7-2.1l13.6,3.3
	c2.5,0.6,5.2-0.2,7-2.1L153.9,41.9z"/>
<linearGradient id="SVGID_00000062900361334067188390000010351271949408107659_" gradientUnits="userSpaceOnUse" x1="108.3117" y1="888.9925" x2="14.5192" y2="991.2994" gradientTransform="matrix(1 0 0 1 0 -888.9818)">
	<stop  offset="0.6496" style="stop-color:#1BC675"/>
	<stop  offset="0.7967" style="stop-color:#0FD879"/>
</linearGradient>
<path style="fill:url(#SVGID_00000062900361334067188390000010351271949408107659_);" d="M122.8,13.3L108.3,0L45.1,68.9
	c-2.3,2.5-5.7,3.8-9,3.5l-15.5-1.5c-2.3-0.2-4.5,0.6-6,2.3L0,89l14.5,13.3l23-25.1c1.8-1.9,4.4-2.8,7-2.1l13.6,3.3
	c2.5,0.6,5.2-0.2,7-2.1L122.8,13.3z"/>
<path class="st4" d="M269.6,141.9V38.1h19v89h46v14.8H269.6z"/>
<path class="st4" d="M361.1,56.9c-3.5,0-6.3-1-8.6-3.1c-2.2-2.1-3.3-4.7-3.3-7.9s1.1-5.7,3.3-7.7c2.3-2.1,5.1-3.1,8.6-3.1
	s6.3,1,8.5,3.1c2.3,2,3.4,4.5,3.4,7.7s-1.1,5.8-3.4,7.9C367.4,55.9,364.6,56.9,361.1,56.9z M351.6,141.9V68.4h19V142h-19V141.9z"/>
<path class="st4" d="M423.2,141.9c-7.7,0-13.9-1.9-18.5-5.6s-7-10.4-7-20v-32h-12.6V68.4h12.6l2.2-19.7h16.8v19.7h19.9v15.9h-19.9
	v32.2c0,3.6,0.7,6,2.2,7.4c1.6,1.3,4.3,1.9,8,1.9h9.2V142h-12.9V141.9z"/>
<path class="st4" d="M486.7,143.7c-7.4,0-14-1.6-19.7-4.7c-5.7-3.2-10.2-7.6-13.5-13.3s-4.9-12.4-4.9-19.9c0-7.6,1.6-14.4,4.7-20.3
	c3.3-5.9,7.7-10.5,13.4-13.8c5.7-3.4,12.5-5,20.2-5c7.2,0,13.6,1.6,19.1,4.7c5.5,3.2,9.8,7.5,12.9,13.1c3.2,5.4,4.7,11.5,4.7,18.2
	c0,1.1,0,2.2-0.1,3.4c0,1.2,0,2.4-0.1,3.7h-55.9c0.4,5.7,2.4,10.2,5.9,13.5c3.7,3.3,8.1,4.9,13.2,4.9c3.9,0,7.1-0.8,9.6-2.5
	c2.7-1.8,4.6-4.1,5.9-6.8h19.3c-1.4,4.6-3.7,8.9-7,12.8c-3.2,3.8-7.1,6.7-11.9,8.9C497.9,142.6,492.6,143.7,486.7,143.7z M486.9,82
	c-4.6,0-8.8,1.3-12.3,4c-3.6,2.6-5.8,6.5-6.8,11.9h36.6c-0.3-4.8-2.1-8.7-5.3-11.6C495.8,83.4,491.7,82,486.9,82z"/>
<path class="st4" d="M539.6,141.9V68.4h16.8l1.5,12.5c2.3-4.4,5.5-7.8,9.8-10.4c4.4-2.6,9.4-3.9,15.3-3.9c9.1,0,16.2,2.9,21.2,8.6
	s7.6,14.1,7.6,25.2v41.5h-19v-39.8c0-6.3-1.3-11.2-3.9-14.5s-6.6-5-12-5c-5.3,0-9.7,1.9-13.2,5.6c-3.4,3.8-5,9-5,15.7v38H539.6z"/>
<path class="st4" d="M662.6,141.9c-7.7,0-13.9-1.9-18.5-5.6c-4.6-3.8-7-10.4-7-20v-32h-12.6V68.4h12.6l2.2-19.7h16.8v19.7H676v15.9
	h-19.9v32.2c0,3.6,0.7,6,2.2,7.4c1.6,1.3,4.3,1.9,8,1.9h9.2V142h-12.9V141.9z"/>
<path class="st4" d="M692.3,141.9V68.4h16.9l1.8,13.8c2.7-4.7,6.3-8.5,10.8-11.3c4.6-2.9,10.1-4.3,16.3-4.3v20h-5.3
	c-4.2,0-7.9,0.6-11.1,1.9c-3.3,1.3-5.8,3.5-7.7,6.7c-1.8,3.2-2.7,7.6-2.7,13.2v33.5H692.3z"/>
<path class="st4" d="M760.3,174.6l17.1-37.5h-4.5l-28.6-68.7h20.6l20.6,51.8L807,68.4h20.2l-46.7,106.2H760.3z"/>
</svg>
