<?xml version="1.0" encoding="utf-8"?>
<!-- Generator: Adobe Illustrator 26.0.1, SVG Export Plug-In . SVG Version: 6.00 Build 0)  -->
<svg version="1.1" id="Layer_1" xmlns="http://www.w3.org/2000/svg" xmlns:xlink="http://www.w3.org/1999/xlink" x="0px" y="0px"
	 viewBox="0 0 339.9 162.6" style="enable-background:new 0 0 339.9 162.6;" xml:space="preserve">
<style type="text/css">
	.st0{fill:#6666FF;}
	.st1{display:none;fill:#6666FF;}
</style>
<g id="a">
</g>
<g id="b">
	<g>
		<path class="st0" d="M339.9,81.2v0.3c-0.1,44.7-36.6,81.1-81.3,81.1c-15.2,0-29.8-3.7-43.4-11c-1.5-0.8-3-1.7-4.5-2.6
			c-4.1-2.5-7-6.5-7.9-11.2c-1-4.6,0-9.5,2.7-13.4l34.9-50.2c3.9-5.7,11.7-7.1,17.4-3.1c5.7,3.9,7.1,11.7,3.1,17.4L231,131.5
			c8.8,4,18,6,27.6,6c31,0,56.2-25.2,56.3-56.2v-0.2c0-14.7-5.6-28.6-15.8-39.1c-10.2-10.6-23.8-16.6-38.3-17
			c-38.9-1.1-58.1,28.6-80.3,62.9l-0.1,0.2c-22.5,34.9-48,74.4-99.1,74.4c-1,0-2,0-2.9,0c-21.1-0.6-40.9-9.4-55.6-24.7
			C8.1,122.6,0,102.5,0,81.4v-0.3C0.1,36.4,36.6,0,81.3,0c15.2,0,29.8,3.7,43.4,11c1.5,0.8,3.1,1.7,4.5,2.6c4.1,2.5,7,6.5,7.9,11.2
			c1,4.6,0,9.5-2.7,13.4L99.5,88.2c-3.9,5.7-11.7,7.1-17.4,3.1C76.5,87.4,75.1,79.6,79,74l29.9-43c-8.8-4-18-6-27.6-6
			c-31,0-56.2,25.2-56.3,56.2v0.2c0,14.7,5.6,28.6,15.8,39.1c10.2,10.6,23.8,16.6,38.3,17c0.7,0,1.4,0,2.1,0
			c37.5,0,56.4-29.2,78.1-63l0.1-0.2c23-35.6,49-75.9,102-74.4c21.1,0.6,40.9,9.4,55.6,24.7C331.9,40,339.9,60,339.9,81.2
			L339.9,81.2z"/>
		<g>
			<path class="st1" d="M-96.4,0c-44.5,0-80.8,36-81.3,80.5c0,0.3,0,0.6,0,0.8V219c0,6.9,5.6,12.5,12.5,12.5s12.5-5.6,12.5-12.5
				v-79.1c14.6,14.1,34.5,22.7,56.3,22.7c44.8,0,81.3-36.5,81.3-81.3S-51.6,0-96.4,0z M-96.4,137.6c-31,0-56.3-25.2-56.3-56.3
				S-127.5,25-96.4,25s56.3,25.2,56.3,56.3S-65.4,137.6-96.4,137.6z"/>
			<path class="st1" d="M436.4,0c-44.8,0-81.3,36.5-81.3,81.3s36.5,81.3,81.3,81.3c21.8,0,41.7-8.6,56.3-22.7V219
				c0,6.9,5.6,12.5,12.5,12.5c6.9,0,12.5-5.6,12.5-12.5V81.3C517.7,36.5,481.2,0,436.4,0z M436.4,137.6c-31,0-56.3-25.2-56.3-56.3
				S405.3,25,436.4,25s56.3,25.2,56.3,56.3l0,0C492.7,112.3,467.4,137.6,436.4,137.6z"/>
		</g>
	</g>
</g>
</svg>
