<svg enable-background="new 0 0 512 512" viewBox="0 0 512 512" xmlns="http://www.w3.org/2000/svg" xmlns:xlink="http://www.w3.org/1999/xlink"><linearGradient id="a"><stop offset="0" stop-color="#3d8bff"/><stop offset="1" stop-color="#3de6ff"/></linearGradient><radialGradient id="b" cx="404.1114" cy="403.6432" gradientTransform="matrix(.3924 .9198 -.9198 .3924 469.4046 -275.1227)" gradientUnits="userSpaceOnUse" r="130.0018" xlink:href="#a"/><radialGradient id="c" cx="480.4473" cy="29.7104" gradientTransform="matrix(-.3924 -.9198 .9198 -.3924 416.4902 710.6007)" gradientUnits="userSpaceOnUse" r="130.0018" xlink:href="#a"/><radialGradient id="d" cx="585.4612" cy="342.8203" gradientTransform="matrix(-.6026 .7981 -.7981 -.6026 883.6212 -4.5656)" gradientUnits="userSpaceOnUse" r="130.0018" xlink:href="#a"/><radialGradient id="e" cx="299.0974" cy="90.5334" gradientTransform="matrix(.6026 -.7981 .7981 .6026 2.2737 440.0436)" gradientUnits="userSpaceOnUse" r="130.0018" xlink:href="#a"/><radialGradient id="f" cx="623.043" cy="155.5399" gradientTransform="matrix(-.9923 -.1239 .1239 -.9923 855.4919 488.6996)" gradientUnits="userSpaceOnUse" r="130.0018" xlink:href="#a"/><radialGradient id="g" cx="261.5157" cy="277.8138" gradientTransform="matrix(.9923 .1239 -.1239 .9923 30.4028 -53.2216)" gradientUnits="userSpaceOnUse" r="130.0018" xlink:href="#a"/><radialGradient id="h" cx="199.1119" cy="352.3971" gradientTransform="matrix(.8702 .4927 -.4927 .8702 264.5954 -163.7484)" gradientUnits="userSpaceOnUse" r="142.0197" xlink:href="#a"/><radialGradient id="i" cx="486.7812" cy="101.5998" gradientTransform="matrix(-.8702 -.4927 .4927 -.8702 621.2994 599.2264)" gradientUnits="userSpaceOnUse" r="142.0197" xlink:href="#a"/><radialGradient id="j" cx="378.6469" cy="412.8311" gradientTransform="matrix(.0178 .9998 -.9998 .0178 680.9144 -129.6998)" gradientUnits="userSpaceOnUse" r="142.0197" xlink:href="#a"/><radialGradient id="k" cx="308.786" cy="37.6347" gradientTransform="matrix(-.0178 -.9998 .9998 -.0178 204.9804 565.1779)" gradientUnits="userSpaceOnUse" r="142.0197" xlink:href="#a"/><radialGradient id="l" cx="524.348" cy="290.4836" gradientTransform="matrix(-.8575 .5145 -.5145 -.8575 862.7922 250.4856)" gradientUnits="userSpaceOnUse" r="142.0197" xlink:href="#a"/><radialGradient id="m" cx="164.3728" cy="163.7129" gradientTransform="matrix(.8575 -.5145 .5145 .8575 23.1025 184.9924)" gradientUnits="userSpaceOnUse" r="142.0197" xlink:href="#a"/><radialGradient id="n" cx="199.7521" cy="342.3308" gradientTransform="matrix(.8702 .4927 -.4927 .8702 264.5954 -163.7484)" gradientUnits="userSpaceOnUse" r="84.7132" xlink:href="#a"/><radialGradient id="o" cx="487.4214" cy="91.5335" gradientTransform="matrix(-.8702 -.4927 .4927 -.8702 621.2994 599.2264)" gradientUnits="userSpaceOnUse" r="84.7132" xlink:href="#a"/><radialGradient id="p" cx="378.5172" cy="404.5304" gradientTransform="matrix(.0178 .9998 -.9998 .0178 680.9144 -129.6998)" gradientUnits="userSpaceOnUse" r="84.7132" xlink:href="#a"/><radialGradient id="q" cx="308.6563" cy="29.3339" gradientTransform="matrix(-.0178 -.9998 .9998 -.0178 204.9804 565.1779)" gradientUnits="userSpaceOnUse" r="84.7132" xlink:href="#a"/><radialGradient id="r" cx="523.5743" cy="280.3175" gradientTransform="matrix(-.8575 .5145 -.5145 -.8575 862.7922 250.4856)" gradientUnits="userSpaceOnUse" r="84.7132" xlink:href="#a"/><radialGradient id="s" cx="163.5991" cy="153.5468" gradientTransform="matrix(.8575 -.5145 .5145 .8575 23.1025 184.9924)" gradientUnits="userSpaceOnUse" r="84.7132" xlink:href="#a"/><radialGradient id="t" cx="280.4883" cy="298.231" gradientTransform="matrix(.5065 .8622 -.8622 .5065 479.6214 -201.781)" gradientUnits="userSpaceOnUse" r="112.5127" xlink:href="#a"/><radialGradient id="u" cx="403.8849" cy="-62.9147" gradientTransform="matrix(-.5065 -.8622 .8622 -.5065 406.2734 637.259)" gradientUnits="userSpaceOnUse" r="112.5127" xlink:href="#a"/><radialGradient id="v" cx="470.8885" cy="262.8484" gradientTransform="matrix(-.4853 .8743 -.8743 -.4853 822.9202 36.1827)" gradientUnits="userSpaceOnUse" r="112.5127" xlink:href="#a"/><radialGradient id="w" cx="222.521" cy="-26.9214" gradientTransform="matrix(.4853 -.8743 .8743 .4853 62.9745 399.2953)" gradientUnits="userSpaceOnUse" r="112.5127" xlink:href="#a"/><radialGradient id="x" cx="531.8013" cy="88.1934" gradientTransform="matrix(-.9999 .016 -.016 -.9999 789.95 456.3416)" gradientUnits="userSpaceOnUse" r="112.5127" xlink:href="#a"/><radialGradient id="y" cx="156.7334" cy="158.741" gradientTransform="matrix(.9999 -.016 .016 .9999 95.9447 -20.8636)" gradientUnits="userSpaceOnUse" r="112.5127" xlink:href="#a"/><radialGradient id="z" cx="282.348" cy="381.6986" gradientTransform="matrix(.5065 .8622 -.8622 .5065 479.6214 -201.781)" gradientUnits="userSpaceOnUse" r="153.4738" xlink:href="#a"/><radialGradient id="A" cx="405.7445" cy="20.5529" gradientTransform="matrix(-.5065 -.8622 .8622 -.5065 406.2734 637.259)" gradientUnits="userSpaceOnUse" r="153.4738" xlink:href="#a"/><radialGradient id="B" cx="467.9173" cy="345.9896" gradientTransform="matrix(-.4853 .8743 -.8743 -.4853 822.9202 36.1827)" gradientUnits="userSpaceOnUse" r="153.4738" xlink:href="#a"/><radialGradient id="C" cx="219.5499" cy="56.2197" gradientTransform="matrix(.4853 -.8743 .8743 .4853 62.9745 399.2953)" gradientUnits="userSpaceOnUse" r="153.4738" xlink:href="#a"/><radialGradient id="D" cx="531.4362" cy="165.45" gradientTransform="matrix(-.9999 .016 -.016 -.9999 789.95 456.3416)" gradientUnits="userSpaceOnUse" r="153.4738" xlink:href="#a"/><radialGradient id="E" cx="156.3683" cy="235.9976" gradientTransform="matrix(.9999 -.016 .016 .9999 95.9447 -20.8636)" gradientUnits="userSpaceOnUse" r="153.4738" xlink:href="#a"/><radialGradient id="F" cx="255.5085" cy="254.7334" gradientUnits="userSpaceOnUse" r="245.9728"><stop offset="0" stop-color="#cce6ff"/><stop offset=".2859" stop-color="#cae3ff"/><stop offset=".5207" stop-color="#c6d9ff"/><stop offset=".7374" stop-color="#bec7ff"/><stop offset=".942" stop-color="#b2afff"/><stop offset=".9944" stop-color="#afa8ff"/></radialGradient><radialGradient id="G" cx="140" cy="437" gradientUnits="userSpaceOnUse" r="314.2499"><stop offset="0" stop-color="#6b00aa" stop-opacity=".2"/><stop offset=".9944" stop-color="#6b00aa" stop-opacity="0"/></radialGradient><g fill="url(#b)"><path d="m377.63 250.76-110.89-4.93.15 19.83 110.8-6.6c11-.66 10.95-7.81-.06-8.3z"/><path d="m377.63 250.76-110.89-4.93.15 19.83 110.8-6.6c11-.66 10.95-7.81-.06-8.3z"/><path d="m377.63 250.76-110.89-4.93.15 19.83 110.8-6.6c11-.66 10.95-7.81-.06-8.3z"/></g><path d="m134.37 261.24 110.89 4.93-.15-19.83-110.8 6.6c-11 .66-10.95 7.81.06 8.3z" fill="url(#c)"/><path d="m321.07 358.89-50.9-98.64-17.12 10 60.86 92.83c6.04 9.21 12.21 5.6 7.16-4.19z" fill="url(#d)"/><path d="m190.93 153.11 50.9 98.64 17.12-10-60.86-92.83c-6.04-9.21-12.21-5.6-7.16 4.19z" fill="url(#e)"/><path d="m199.3 363.73 60.08-93.33-17.21-9.85-50.08 99.06c-4.96 9.83 1.25 13.39 7.21 4.12z" fill="url(#f)"/><path d="m312.7 148.27-60.08 93.33 17.21 9.85 50.08-99.06c4.96-9.83-1.25-13.39-7.21-4.12z" fill="url(#g)"/><path d="m357.57 139.01-38.81 6.89-14.06-36.82c-1.72-4.49-7.18-2.98-6.34 1.76l8.47 47.71 7.23 4.09 45.27-17.29c4.49-1.71 2.98-7.18-1.76-6.34z" fill="url(#h)"/><path d="m154.43 372.99 38.81-6.89 14.06 36.82c1.72 4.49 7.18 2.98 6.34-1.76l-8.47-47.71-7.23-4.09-45.27 17.29c-4.49 1.71-2.98 7.18 1.76 6.34z" fill="url(#i)"/><path d="m410.15 284.79-25.65-29.93 24.57-30.82c3-3.76-1.08-7.7-4.74-4.57l-36.79 31.54.15 8.3 37.89 30.21c3.76 3 7.7-1.08 4.57-4.73z" fill="url(#j)"/><path d="m101.85 227.21 25.65 29.93-24.57 30.82c-3 3.76 1.08 7.7 4.74 4.57l36.79-31.54-.15-8.3-37.89-30.21c-3.76-3-7.7 1.08-4.57 4.73z" fill="url(#k)"/><path d="m306.5 402.67 13.12-37.17 38.97 5.91c4.76.72 6.13-4.78 1.6-6.38l-45.69-16.13-7.12 4.27-7.26 47.91c-.73 4.75 4.78 6.13 6.38 1.59z" fill="url(#l)"/><path d="m205.5 109.33-13.12 37.17-38.97-5.91c-4.76-.72-6.13 4.78-1.6 6.38l45.69 16.13 7.12-4.27 7.26-47.91c.73-4.75-4.78-6.13-6.38-1.59z" fill="url(#m)"/><circle cx="256" cy="256" fill="#3db0ff" r="24.08"/><path d="m325.43 171.72-23.15 4.11-8.39-21.96c-1.02-2.68-4.28-1.78-3.78 1.05l5.05 28.46 4.31 2.44 27-10.31c2.69-1.03 1.79-4.29-1.04-3.79z" fill="url(#n)"/><path d="m186.57 340.28 23.15-4.11 8.39 21.96c1.02 2.68 4.28 1.78 3.78-1.05l-5.05-28.46-4.31-2.44-27 10.31c-2.69 1.03-1.79 4.29 1.04 3.79z" fill="url(#o)"/><path d="m363.87 272.98-15.3-17.85 14.66-18.38c1.79-2.24-.65-4.59-2.82-2.73l-21.94 18.81.09 4.95 22.6 18.02c2.22 1.8 4.57-.64 2.71-2.82z" fill="url(#p)"/><path d="m148.13 239.02 15.3 17.85-14.66 18.38c-1.79 2.24.65 4.59 2.82 2.73l21.94-18.81-.09-4.95-22.6-18.02c-2.22-1.8-4.57.64-2.71 2.82z" fill="url(#q)"/><path d="m295.13 357.94 7.83-22.17 23.25 3.52c2.84.43 3.66-2.85.95-3.81l-27.25-9.62-4.25 2.55-4.33 28.58c-.44 2.84 2.85 3.66 3.8.95z" fill="url(#r)"/><path d="m216.87 154.06-7.83 22.17-23.25-3.52c-2.84-.43-3.66 2.85-.95 3.81l27.25 9.62 4.25-2.55 4.33-28.58c.44-2.84-2.85-3.66-3.8-.95z" fill="url(#s)"/><circle cx="256" cy="256" fill="#3db0ff" r="14.37"/><path d="m469 158.2-29.35-10.67 4.97-30.83c.61-3.76-3.74-4.89-5.05-1.31l-13.12 36.08 3.33 5.67 37.9 6.11c3.77.61 4.9-3.75 1.32-5.05z" fill="url(#t)"/><path d="m43 353.8 29.35 10.67-4.97 30.83c-.61 3.76 3.74 4.89 5.05 1.31l13.12-36.08-3.33-5.67-37.9-6.11c-3.77-.6-4.9 3.75-1.32 5.05z" fill="url(#u)"/><path d="m446 393.58-5.72-30.7 29.08-11.38c3.55-1.39 2.31-5.71-1.43-5.01l-37.74 7.03-3.19 5.75 14 35.75c1.37 3.54 5.69 2.3 5-1.44z" fill="url(#v)"/><path d="m66 118.42 5.72 30.7-29.07 11.38c-3.55 1.39-2.31 5.71 1.43 5.01l37.74-7.03 3.19-5.75-14-35.75c-1.38-3.54-5.7-2.3-5.01 1.44z" fill="url(#w)"/><path d="m233.99 483.77 23.75-20.28 24.37 19.51c2.98 2.38 6.1-.85 3.63-3.75l-24.93-29.19-6.58.1-23.99 29.97c-2.38 2.98.85 6.11 3.75 3.64z" fill="url(#x)"/><path d="m278.01 28.23-23.75 20.28-24.37-19.51c-2.98-2.38-6.1.85-3.63 3.75l24.93 29.19 6.58-.1 23.99-29.97c2.38-2.98-.85-6.11-3.75-3.64z" fill="url(#y)"/><path d="m436.01 190.1-40.03-14.56 6.78-42.05c.83-5.13-5.11-6.67-6.88-1.79l-17.9 49.21 4.55 7.74 51.7 8.33c5.12.83 6.66-5.11 1.78-6.88z" fill="url(#z)"/><path d="m75.99 321.9 40.03 14.56-6.78 42.05c-.83 5.13 5.11 6.67 6.88 1.79l17.9-49.21-4.55-7.74-51.7-8.33c-5.12-.83-6.66 5.11-1.78 6.88z" fill="url(#A)"/><path d="m404.39 377.3-7.8-41.87 39.66-15.53c4.84-1.9 3.15-7.79-1.96-6.84l-51.48 9.59-4.36 7.85 19.09 48.76c1.91 4.83 7.8 3.15 6.85-1.96z" fill="url(#B)"/><path d="m107.61 134.7 7.8 41.87-39.66 15.53c-4.84 1.9-3.15 7.79 1.96 6.84l51.48-9.59 4.36-7.85-19.09-48.76c-1.91-4.83-7.8-3.15-6.85 1.96z" fill="url(#C)"/><path d="m224.81 445.51 32.39-27.66 33.25 26.62c4.06 3.25 8.32-1.16 4.95-5.11l-34.01-39.82-8.97.14-32.72 40.88c-3.24 4.06 1.16 8.33 5.11 4.95z" fill="url(#D)"/><path d="m287.19 66.49-32.39 27.66-33.25-26.62c-4.06-3.25-8.32 1.16-4.95 5.11l34.01 39.82 8.97-.14 32.72-40.88c3.24-4.06-1.16-8.33-5.11-4.95z" fill="url(#E)"/><circle cx="256" cy="256" fill="#3db0ff" r="19.08"/><path d="m467.63 368.96-153-99.77c-8.15-7.27-8.43-20.97 1.55-28.12l151.3-98.28c4.55-2.96 7.53-5.94 9.12-8.59 1.6-2.65 1.82-4.98.87-6.63s-3.08-2.62-6.17-2.56c-3.1.06-7.16 1.15-12 3.62l-163.1 83.29c-9.9 2.83-21.05-3.27-22.77-14.56l-8.8-181.08c-1.05-21.69-15.15-21.74-16.35-.06l-10.06 181.48.1-1.77c-.25 4.55-2.23 8.62-5.25 11.63-.05.05-.1.11-.16.16-.42.41-.86.78-1.31 1.15-.12.1-.24.2-.36.29-.39.3-.81.57-1.23.84-.19.12-.37.25-.57.37-.36.21-.73.39-1.1.57-.27.13-.53.28-.8.4-.28.12-.58.22-.87.33-1.45.54-2.98.91-4.56 1.05-.2.02-.39.05-.59.07-.4.02-.8 0-1.2 0-.33 0-.66 0-1-.02-.32-.02-.65-.08-.98-.12-.43-.06-.87-.11-1.3-.2-.25-.05-.49-.12-.74-.18-.54-.13-1.08-.28-1.61-.47-.15-.05-.3-.11-.46-.17-.68-.26-1.35-.54-2.03-.88l-159.62-81.85c-19.32-9.91-26.4 2.28-8.21 14.14l152.29 99.3c8.42 6.76 9.41 20.1.51 27.71l-152.64 99.15c-18.21 11.83-11.16 24.03 8.18 14.16l164.15-83.83c9.08-2.17 18.97 3.01 21.58 12.72l8.91 183.46c1.05 21.69 15.15 21.74 16.35.06l10.18-183.57c2.56-9.51 12.7-15.84 22.9-12.5l162.64 83.41c19.32 9.9 26.4-2.29 8.21-14.15zm-199.38-91.61-24.57-.08-12.31-21.29 12.38-21.33 24.57.08 12.31 21.29z" fill="url(#F)"/><circle cx="256" cy="255.74" fill="#3db0ff" r="27.69"/><path d="m467.63 368.96-16.08-10.49 17.81-6.97c3.55-1.39 2.31-5.71-1.43-5.01l-27.04 5.04-32.05-20.9 27.4-10.73c4.84-1.9 3.15-7.79-1.96-6.84l-40.74 7.59-78.92-51.46c-1.94-1.73-3.43-3.83-4.44-6.11l32.59-1.94 18.39 14.66c2.22 1.8 4.57-.64 2.71-2.82l-10.68-12.46 14.9-.89 37.49 29.89c3.76 3 7.7-1.08 4.57-4.73l-24.61-28.72c.5-.81.49-1.67-.03-2.47l23.57-29.56c3-3.76-1.08-7.7-4.74-4.57l-36.02 30.88-15.38-.68 10.3-12.91c1.79-2.24-.65-4.59-2.82-2.73l-17.71 15.19-32.27-1.43c1.25-2.53 3.15-4.84 5.75-6.7l77.85-50.57 40.2 6.48c5.12.83 6.66-5.11 1.78-6.88l-26.52-9.64 32.79-21.3 25.4 4.09c3.77.61 4.9-3.75 1.32-5.05l-16.19-5.88 14.67-9.53c4.55-2.96 7.53-5.94 9.12-8.59 1.6-2.65 1.82-4.98.87-6.63s-3.08-2.62-6.17-2.56c-3.1.06-7.16 1.15-12 3.62l-18.09 9.24 3.41-21.17c.61-3.76-3.74-4.89-5.05-1.31l-10.41 28.63-30.62 15.64 4.22-26.17c.83-5.13-5.11-6.67-6.88-1.79l-13.1 36-86.58 44.22c-2.2.63-4.47.79-6.68.58l14.33-28.35 22.61-8.64c2.69-1.03 1.79-4.29-1.04-3.79l-16.8 2.98 6.26-12.38 44.44-16.97c4.49-1.71 2.98-7.18-1.76-6.34l-35.91 6.38c-.3-2.19-1.85-3.04-3.91-2.13l-13.05-34.17c-1.72-4.49-7.18-2.98-6.34 1.76l8.31 46.8-7.12 11.05-5.66-14.82c-1.02-2.68-4.28-1.78-3.78 1.05l3.96 22.3-17.75 27.57c-1.44-2.11-2.46-4.61-2.89-7.43l-4.69-96.49 23.56-29.43c3.24-4.06-1.16-8.33-5.11-4.95l-19.32 16.5-1.55-31.83 15.44-19.28c2.38-2.98-.85-6.11-3.75-3.64l-12.29 10.49-1.09-22.44c-1.05-21.69-15.15-21.74-16.35-.06l-1.46 26.33-16.93-13.59c-2.98-2.38-6.1.85-3.63 3.75l19.82 23.2-1.66 29.89-22.87-18.31c-4.06-3.25-8.32 1.16-4.95 5.11l26.81 31.39-5.1 91.94c-.2 3.46-1.4 6.64-3.29 9.28l-17.84-27.21 3.49-23.03c.44-2.84-2.85-3.66-3.8-.95l-5.4 15.28-6.88-10.49.02-.01 7.26-47.91c.73-4.75-4.78-6.13-6.38-1.59l-12.26 34.73c-2.15-1.05-3.78-.25-4.11 1.95l-35.72-5.42c-4.76-.72-6.13 4.78-1.6 6.38l43.96 15.52 6.57 12.73-16.55-2.51c-2.84-.43-3.66 2.85-.95 3.81l22.22 7.84 14.66 28.4c-.06.01-.13.02-.19.02-.4.02-.8 0-1.2 0-.33 0-.66 0-1-.02-.32-.02-.65-.08-.98-.12-.43-.06-.87-.11-1.3-.2-.25-.05-.49-.12-.74-.18-.54-.13-1.08-.28-1.61-.47-.15-.05-.3-.11-.46-.17-.68-.26-1.35-.54-2.03-.88l-84.08-43.11-13.66-34.9c-1.91-4.83-7.8-3.15-6.85 1.96l4.62 24.79-30.75-15.77-10.47-26.74c-1.38-3.54-5.7-2.3-5.01 1.44l3.58 19.2-17-8.72c-19.32-9.91-26.4 2.28-8.21 14.14l16.09 10.49-17.81 6.97c-3.55 1.39-2.31 5.71 1.43 5.01l27.03-5.03 32.04 20.89-27.4 10.73c-4.84 1.9-3.15 7.79 1.96 6.84l40.75-7.59 78.2 50.99c2.25 1.8 3.96 4.08 5.1 6.58l-32.53 1.94-18.39-14.66c-2.22-1.8-4.57.64-2.71 2.82l10.68 12.46-14.9.89-37.49-29.89c-3.76-3-7.7 1.08-4.57 4.73l24.61 28.72c-.5.81-.49 1.67.03 2.47l-23.57 29.56c-3 3.76 1.08 7.7 4.74 4.57l36.02-30.88 15.38.68-10.3 12.91c-1.79 2.24.65 4.59 2.82 2.73l17.71-15.19 32.37 1.44c-1.03 2.13-2.52 4.12-4.51 5.82l-79.2 51.45-40.2-6.48c-5.12-.83-6.66 5.11-1.78 6.88l26.51 9.64-32.79 21.3-25.39-4.09c-3.77-.6-4.9 3.75-1.32 5.05l16.18 5.88-14.65 9.52c-18.21 11.83-11.16 24.03 8.18 14.16l18.08-9.24-3.41 21.18c-.61 3.76 3.74 4.89 5.05 1.31l10.41-28.64 30.62-15.64-4.22 26.17c-.83 5.13 5.11 6.67 6.88 1.79l13.1-36.01 87.64-44.76c1.92-.46 3.88-.57 5.8-.4l-14.52 28.72-22.61 8.64c-2.69 1.03-1.79 4.29 1.04 3.79l16.8-2.98-6.26 12.38-44.44 16.97c-4.49 1.71-2.98 7.18 1.76 6.34l35.91-6.38c.3 2.19 1.85 3.04 3.91 2.13l13.05 34.17c1.72 4.49 7.18 2.98 6.34-1.76l-8.31-46.8 7.12-11.05 5.66 14.82c1.02 2.68 4.28 1.78 3.78-1.05l-3.96-22.3 18-27.96c1.1 1.6 1.97 3.41 2.51 5.42l4.8 98.9-23.54 29.41c-3.24 4.06 1.16 8.33 5.11 4.95l19.3-16.48 1.55 31.84-15.42 19.26c-2.38 2.98.85 6.11 3.75 3.64l12.27-10.48 1.09 22.42c1.05 21.69 15.15 21.74 16.35.06l1.46-26.34 16.97 13.61c2.98 2.38 6.1-.85 3.63-3.75l-19.84-23.23 1.66-29.88 22.89 18.32c4.06 3.25 8.32-1.16 4.95-5.11l-26.83-31.41 5.31-95.75c.58-2.15 1.56-4.12 2.82-5.87l18.11 27.63-3.49 23.03c-.44 2.84 2.85 3.66 3.8.95l5.4-15.28 6.88 10.49-.02.01-7.26 47.91c-.73 4.75 4.78 6.13 6.38 1.59l12.26-34.73c2.15 1.05 3.78.25 4.11-1.95l35.72 5.42c4.76.72 6.13-4.78 1.6-6.38l-43.96-15.52-6.57-12.73 16.55 2.51c2.84.43 3.66-2.85.95-3.81l-22.22-7.84-14.85-28.78c2.17-.14 4.43.1 6.69.84l87.1 44.67 13.66 34.89c1.91 4.83 7.8 3.15 6.85-1.96l-4.62-24.78 30.76 15.78 10.47 26.74c1.37 3.54 5.69 2.3 5-1.44l-3.57-19.19 16.99 8.72c19.32 9.9 26.4-2.29 8.21-14.15z" fill="url(#G)"/></svg>